<?xml version="1.0" encoding="utf-8"?>
<!-- Generator: Adobe Illustrator 23.0.2, SVG Export Plug-In . SVG Version: 6.00 Build 0)  -->
<svg version="1.1" id="Layer_1" xmlns="http://www.w3.org/2000/svg" xmlns:xlink="http://www.w3.org/1999/xlink" x="0px" y="0px"
	 viewBox="0 0 320 380.01788" style="enable-background:new 0 0 320 380.01788;" xml:space="preserve">
<style type="text/css">
    @import url('https://fonts.googleapis.com/css?family=Roboto:300,400,700');
	.st0{fill:none;stroke:#000000;stroke-width:0.35;stroke-miterlimit:10;}
	.st1{fill:#A7A9AC;stroke:#000000;stroke-width:2.29934;stroke-miterlimit:10;}
	.st2{fill:#D1D3D4;stroke:#000000;stroke-width:2.29934;stroke-miterlimit:10;}
	.st3{fill:#FFFFFF;stroke:#000000;stroke-width:2.29934;stroke-miterlimit:10;}
	.st4{fill:none;stroke:#000000;stroke-width:2.29934;stroke-miterlimit:10;}
	.st5{fill:none;stroke:#000000;stroke-width:0.80477;stroke-miterlimit:10;}
	.st6{fill:none;stroke:#000000;stroke-width:0.5;stroke-miterlimit:10;}
	.st7{font-family:'Roboto';font-weight: 300;}
	.st8{font-size:15px;}
	.st9{fill:#FFFFFF;stroke:#A7A9AC;stroke-width:2.29934;stroke-miterlimit:10;}
	.st10{fill:none;stroke:#A7A9AC;stroke-width:0.80477;stroke-miterlimit:10;}
	.st11{fill:none;}
	.st12{fill:#808285;}
</style>
<rect x="-92.79945" y="16.93961" class="st11" width="55.5989" height="32.3794"/>
<text transform="matrix(1 0 0 1 -92.79973 23.40186)"><tspan x="0" y="0" style="font-family:'Amplitude-Light'; font-size:9px;">El primer Godzilla </tspan><tspan x="0" y="10.7998" style="font-family:'Amplitude-Light'; font-size:9px;">fue animado </tspan><tspan x="0" y="21.59961" style="font-family:'Amplitude-Light'; font-size:9px;">por un actor</tspan></text>
<line class="st0" x1="-44.1824" y1="194.68323" x2="-12.63589" y2="194.68323"/>
<path class="st1" d="M58.47539,255.90459c0,0,6.10723-2.10768,10.11956-3.05176c4.01234-0.94408,39.56816-1.81145,45.32279-1.06099
	c5.75447,0.75044,5.64579,1.5157,7.71563,2.43488c2.06984,0.91919,5.32331,0.00977,3.96775,3.62036
	c-1.35555,3.61078-12.58557,12.9964-22.65685,14.47122c-10.07128,1.47498-31.60608,1.70056-37.90829-3.08038
	C58.73395,264.45697,58.47539,255.90459,58.47539,255.90459z"/>
<path class="st2" d="M77.26762,314.83881c0.38052,0.39935,0.69628,4.24802,3.97482,9.42075
	c3.27854,5.17291,27.7248,13.17856,34.88815,14.62497c7.16335,1.44638,10.4979,2.30753,15.6592-1.22385
	c5.16115-3.53137,5.96626-2.55432,10.74722-8.85654c4.78094-6.30219,3.91795-8.54398,8.28557-12.79938
	c4.36761-4.25558,4.62064-4.26703,8.33369-6.21136s2.8615-3.93311,8.44942-3.68195
	c5.58777,0.25116,9.84149-0.95752,11.69316,0.73196c1.85164,1.68964,4.47375,3.59732,6.70392,2.48129
	c2.22998-1.116,2.29779-5.17459-0.85341-7.56506c-3.15102-2.39047-6.37169-6.29849-10.47653-7.37799
	c-4.10503-1.07935-8.48611-2.65308-14.69377,0.16586c-6.20767,2.81879-8.46103,3.42892-15.84088,8.32932
	c0,0-7.18472,3.62405-12.71461,4.63763c-5.53005,1.01355-11.7547-13.14929-16.46988-16.48218
	c-4.715-3.3327-14.82111-2.61658-16.07422-2.30569C97.62635,289.03748,77.26762,314.83881,77.26762,314.83881z"/>
<path class="st3" d="M67.6936,238.69974c-0.54067-0.73564-3.91005-2.35582-4.01418-4.63225
	c-0.1043-2.27641-0.88621-2.7476-1.7492-4.98938c-0.86316-2.24159-1.73776-4.73636-1.05998-6.54158
	c0.67777-1.80539,1.58534-4.12823,2.97555-6.97998c1.39038-2.85193,2.78059-5.70367,3.43515-8.01491
	c0.65456-2.31125,0.59669-3.57596,1.76888-5.65741c1.17203-2.08144,2.36726-3.65686,3.10291-4.19754
	s4.94295-2.76091,4.94295-2.76091l-1.94417-3.71306c-0.40357-3.27667-1.35741-1.9657-0.85341-7.56506
	c0.50417-5.59953,1.62572-7.77972,3.07801-10.27988c1.45245-2.5,1.32091-4.36948,5.32162-5.56639
	c4.00072-1.1971,8.09178-0.42175,10.75546,2.39687c2.66367,2.8186,3.68715,3.02518,4.12538,7.06056
	c0.43822,4.03554,1.20852,4.25372,0.56557,6.81798c-0.64313,2.56409-0.34385,3.56418-1.51588,5.64563
	c-1.17202,2.08144-2.11442,3.64543-2.11442,3.64543s0.89782,3.00063,5.19782,2.80363
	c4.29999-0.19682,7.10547,0.18169,7.10547,0.18169s0.4596-1.03493,2.32285,0.90756c1.86326,1.9425,2.92123,2.90794,3.00231,4.67851
	c0.08109,1.77055,0.15056,3.28828,2.24362,4.71332c2.09305,1.42487,2.40376,2.67813,5.08376,5.85052
	c2.67998,3.17238,3.92148,2.60866,5.11857,6.60938c1.19709,4.00073,2.81894,6.20767,1.61211,7.53026
	c-1.20686,1.32259-0.80968,2.06496-4.09158,4.74982c-3.2819,2.68504-3.65517,3.20906-6.36798,4.85396
	c-2.71296,1.64508-7.21954,2.86539-7.93214,3.91174c-0.71243,1.04652-1.75896,0.33409-0.57348,4.0818
	c1.18549,3.74788,0.6332,2.75923,1.53101,5.75986c0.89782,3.00046,1.8535,7.26578,1.8535,7.26578l0.37061,8.09415
	c0,0-28.51293,2.82617-34.65297,1.58636c-6.14004-1.23965-13.0968-3.70935-12.37277-4.50305
	c0.72404-0.79352,3.91964-2.96747,7.05737-6.40634c3.13773-3.43867,4.87364-4.27861,6.51669-7.14197
	c1.64322-2.86353,1.59695-3.87523,1.4464-7.16353c-0.15056-3.28812,0.11407-3.04688-0.84163-7.31206
	c-0.95568-4.26534-1.66828-3.21881-2.12955-7.76021c-0.46145-4.54123-2.46366-9.519-2.46366-9.519s-0.88436,2.8287-3.0797,4.7034
	c-2.1955,1.87486-1.37877,3.10475-1.3209,4.36946c0.05804,1.26472,1.54094,0.43639,2.88657,2.14908
	c1.34579,1.71269,3.1628,2.64348,2.2204,4.20747c-0.94223,1.56398-2.23016,1.116-2.41352,2.64516
	c-0.18353,1.52917,0.62159,2.50623-0.6083,3.32295C70.00468,239.35429,67.6936,238.69974,67.6936,238.69974z"/>
<path class="st4" d="M105.89746,231.62773c0.95383-1.31097,11.03487-8.10928,10.01157-8.31586
	c-1.02332-0.20657-6.63613-6.5399-6.84288-5.5166c-0.20658,1.02332,0.88621,2.74762-0.04441,4.56462
	C108.09095,224.17671,105.89746,231.62773,105.89746,231.62773z"/>
<path class="st2" d="M56.84563,256.43231c1.24167-0.56372,1.08657-1.30576,5.38134,1.27448
	c4.29478,2.58041,4.25541,4.36761,11.67178,5.8024c7.41636,1.43481,9.76225,2.84824,18.79878,0.91382
	c9.03636-1.9346,9.53061-2.21066,14.55464-3.20117c5.02422-0.99033,2.08145,1.17221,6.32357-0.28949
	c4.24213-1.46155,3.05782-0.39331,6.39759-1.81366c3.33977-1.42032,4.47713-4.26045,5.62779-1.27161
	c1.15066,2.98901,3.45029,3.39075,3.7282,9.4613s0.63504,8.33554-0.17984,12.68179s-0.62881,2.87228-0.81757,9.82367
	c-0.18875,6.95154,1.82323,6.60583-2.05016,10.58539c-3.87337,3.97934-5.70181,2.79572-5.73479,7.61316
	c-0.0328,4.81747-1.43647,1.84006,0.11776,8.10559c1.55406,6.26569,2.40376,2.67813,1.63515,8.03625
	c-0.76862,5.35812,0.22004,4.80585-2.89448,8.75055s-3.17238,2.67999-4.82721,5.29034
	c-1.65483,2.6105-3.98911,1.4501-2.28618,5.42761c1.70277,3.97751,2.41537,2.93115,1.81868,6.50693
	c-0.59669,3.57596-0.56204,4.33481-3.81551,5.24423c-3.25347,0.90927-8.31232,1.1409-8.31232,1.1409
	s-6.30035,0.79538-7.97823,2.89987c-1.67803,2.10464-3.13958-2.13745-2.71481-3.93124
	c0.42494-1.79361-0.8746-2.4946-2.12771-2.18372c-1.2531,0.31085-2.24176,0.86298-3.72466,1.69131s-3.03528,0.13895-5.75967,1.53101
	c-2.72441,1.39206-5.17275,3.27853-5.30009,0.49609c-0.12752-2.78226-0.19699-4.29999,0.51561-5.3465
	c0.71243-1.04654-6.0243,1.28976-7.47255,2.8768c-1.44808,1.58719-5.3117,0.24326-3.65687-2.36725
	c1.65483-2.61053,3.28644-5.7269,5.2752-6.57828c1.98875-0.85156,4.72476-1.9906,4.94295-2.76108
	c0,0,2.82685-4.69177,4.62063-4.26703c1.79379,0.42477,4.34626,0.81488,5.30026-0.49609
	c0.95383-1.31097,2.45995-1.63345,2.321-4.66873c-0.13912-3.03528-0.1292-8.35858-0.93449-9.33563
	c-0.80512-0.97705-1.73759-4.73636-3.81904-5.90857c-2.08144-1.17203-3.65687-2.36725-6.88914-6.52829
	c-3.23211-4.16104-2.66839-2.91937-3.23211-4.16104c-0.56371-1.24152-1.70293-3.97751-1.70293-3.97751
	s-1.7243,1.09277-5.01243,1.24335c-3.28829,0.15057-6.59963-0.2049-6.59963-0.2049s-1.97731,1.1044-4.90829,3.51993
	c-2.93114,2.41537-4.66689,3.25531-5.57447,5.578c-0.90757,2.32285-1.09111,3.85202-2.04494,5.16315
	c-0.95383,1.31097-3.68984,2.4502-3.88498,3.72635c-0.19497,1.27634,1.03509,0.45959,2.89817,2.4021
	c1.86326,1.94247,1.43849,3.73627,1.43849,3.73627s3.34616,1.11414,3.9331,2.86151c0.58693,1.7475,0.49609,5.30026,0.49609,5.30026
	s-2.47341-4.19586-4.99123-3.82712c-2.51782,0.36874-3.24186,1.16226-5.30009,0.49609
	c-2.0584-0.66617-4.1745-2.59708-5.19781-2.80365s-0.41333,2.04663-4.56461-0.04459
	c-4.15112-2.09119-7.99169-2.92911-10.17727-6.37772s-3.72652-3.88501-4.70525-8.65601
	c-0.97889-4.77121-0.97889-4.77121-1.37086-7.79489c-0.3918-3.02365-1.92113-3.20718-2.83039-6.46066
	c-0.90942-3.25348-0.95569-4.26535-0.53092-6.05911c0.42494-1.79361-0.76054-5.5415-3.27837-5.17276
	s3.58554-4.72659,6.26553-1.55423c2.67999,3.17255,3.25532,4.6669,3.58924,6.42603c0.3341,1.75897,2.42715,3.18399,2.42715,3.18399
	s1.90767-2.62213,1.29751-4.87531c-0.60998-2.25339-0.46127-4.54141-0.46127-4.54141s1.26471-0.05786,3.3576,1.36716
	c2.09305,1.42487,2.66854,5.41296,4.24397,4.11462c3.90803-3.22049,3.98911-1.44995,4.85043-4.78448
	c0.86115-3.33456,0.28582-4.82907,0.95199-6.8873c0.66617-2.05823,1.07949-4.10501,2.55079-5.18619
	c1.47129-1.08121,2.45995-1.63348,3.437-2.4386c0.97688-0.80511,1.18364-1.82843,1.06772-4.35788
	c-0.11574-2.52942-0.65641-3.26508,0.49256-5.85236c1.14881-2.58731,2.12586-3.39243,4.05674-5.5087
	c1.93089-2.11609,4.19586-2.47324,5.94321-3.06018C53.25824,255.58278,56.84563,256.43231,56.84563,256.43231z"/>
<path class="st5" d="M72.28951,283.5256c1.12358,3.21863-0.27639,6.70493-1.49703,9.88791
	c-1.22063,3.18298-2.23672,6.92667-0.48617,9.85175"/>
<path class="st5" d="M67.01011,294.97751c0.23586,2.79773-1.45296,5.87189,0.0143,8.26572"/>
<path class="st5" d="M63.82696,297.68356c-0.04137,1.86276,0.0895,3.72922,0.39045,5.56808"/>
<path class="st5" d="M60.59502,299.10239c-0.25082,1.34225,0.46211,2.80798,1.67283,3.43918"/>
<path class="st5" d="M69.81845,290.8183c0.23183,1.54144,0.04761,3.14362-0.52805,4.59238"/>
<path class="st5" d="M41.20173,321.9039c-1.42066-1.14224-1.99666-3.22571-1.36481-4.93555
	c0.82329-2.22729,3.24355-3.40402,4.65545-5.31305c1.63363-2.20895,1.71102-5.44913,0.18471-7.73346
	c-3.20148,0.48666-6.6474,1.09482-8.89489,3.42624c-0.64817,0.67221-1.38617,1.55035-2.2993,1.35504
	c-0.83894-0.17917-1.19877-1.15335-1.41544-1.98337c-0.45118-1.72733-0.90235-3.45465-1.35354-5.18201
	c-0.26697-1.02194-0.54-2.05872-1.07613-2.96866c-0.49912-0.84717-1.22098-1.5618-2.07304-2.05249"/>
<path class="st5" d="M23.01141,297.55368c-1.13518,0.98767-1.81363,2.48032-1.81128,3.98508
	c0.0005,0.26044,0.00992,0.55096-0.1652,0.7439c-0.23888,0.26312-0.66869,0.18674-0.9964,0.04929
	c-1.42285-0.59668-2.47644-1.99548-2.65711-3.52783"/>
<path class="st5" d="M44.21749,315.91678c2.25674-2.88574,4.17113-6.03909,5.69054-9.37247
	c0.7449-1.63431,1.42722-3.3598,2.70707-4.61963c1.72229-1.69553,4.32186-2.3353,5.88535-4.17819
	c1.36666-1.61075,1.67703-4.04092,0.75937-5.94357"/>
<path class="st5" d="M54.3236,294.59225c-1.25933,2.35483-3.2533,4.31009-5.63216,5.52335"/>
<path class="st5" d="M53.75568,304.77072c1.43815-0.85291,2.48788-2.33463,2.81558-3.97433"/>
<path class="st5" d="M54.46794,298.13037c1.16159-1.42368,1.97681-3.12796,2.35616-4.92578"/>
<path class="st5" d="M46.29894,296.51154c2.51496-1.94113,4.69146-4.31949,6.40264-6.99631"/>
<path class="st5" d="M55.48065,290.05692c1.12021-1.62958,3.08844-2.63977,5.06542-2.60007"/>
<path class="st5" d="M57.71552,291.67694c0.42039-1.23376,1.95629-1.57913,3.22975-1.85654
	c1.27346-0.2774,2.78681-1.02786,2.72003-2.32959"/>
<path class="st5" d="M60.65474,283.17316c-0.49054,1.185-2.28231,2.27475-4.48117,2.93503"/>
<path class="st5" d="M53.08681,285.96805c-0.76694,0.89883-1.78806,1.57846-2.91332,1.93912"/>
<path class="st5" d="M44.62814,293.51764c-1.14629,1.22989-1.97412,2.75418-2.38157,4.38528"/>
<path class="st5" d="M35.40437,280.99231c0.14433,1.53369,1.05359,2.97623,2.37482,3.7684
	c1.67114,1.00177,3.79952,0.92639,5.66379,0.35983"/>
<path class="st5" d="M46.06427,269.60532c0.03314,1.26523-0.12163,2.73148,0.3489,3.84546
	c1.05426-0.60056,2.11443-0.68182,3.32967-0.65439"/>
<path class="st5" d="M42.11637,269.54343c0.2372,0.62244,0.19868,1.30945,0.23282,1.97495
	c0.05502,1.07413,0.74187,2.75906,2.06564,1.91879c0.92624-0.58813-0.02507-3.84009,0.10194-4.77374"/>
<path class="st5" d="M38.78754,278.31046c0.10766-0.29877-0.46951-0.13358-0.5723,0.16705
	c-0.45169,1.32141-0.59956,2.74542-0.42914,4.13144c0.12533,1.01926,0.85492,2.27725,1.83213,1.96149"/>
<path class="st5" d="M40.67822,279.23166c-0.43554,1.58249-0.28296,3.31973,0.42207,4.80197
	c0.25924-0.01599,0.51863-0.03214,0.77787-0.04828"/>
<path class="st5" d="M43.01839,280.6402c-0.04324,0.75046,0.24022,1.51419,0.76256,2.05487"/>
<path class="st5" d="M83.06969,291.77231c-0.76592,7.40106-0.25251,14.93265,1.51083,22.1611
	c0.52839,2.16571,1.17303,4.35114,1.05157,6.5769"/>
<path class="st5" d="M75.09029,302.74612c-0.11121,4.04968,1.69973,8.11063,4.78683,10.7341
	c0.23787,0.20218,0.80243,0.14145,0.62664-0.11642"/>
<path class="st5" d="M78.4896,301.58017c-0.31963,4.59991,1.22804,9.30264,4.21689,12.81384"/>
<path class="st5" d="M80.14308,301.28122c0.62816,0.72891,1.25647,1.45782,1.8848,2.18677"/>
<path class="st5" d="M81.0441,297.92682c0.25537,0.07721,0.51089,0.15442,0.76626,0.23148"/>
<path class="st5" d="M125.03304,268.76605c-0.41164,5.79401-3.59295,11.32944-8.39172,14.60208"/>
<path class="st5" d="M126.397,272.55045c-1.11752,4.2485-3.11065,8.26456-5.81856,11.72375"/>
<path class="st5" d="M122.08153,265.34521c-0.62142,3.46121-2.2204,6.74142-4.56393,9.36337"/>
<path class="st5" d="M125.27898,285.94247c-1.15351,2.04395-2.46214,4.0004-3.91106,5.84698"/>
<path class="st5" d="M124.84563,291.5881c-0.58307,2.47141-2.08683,4.71432-4.15145,6.19254"/>
<path class="st5" d="M123.38561,298.99622c-0.36724,1.28928-1.55087,2.30569-2.88102,2.47342"/>
<path class="st5" d="M121.61336,286.6904c-0.40828,0.35413-0.81656,0.70822-1.22484,1.06235"/>
<path class="st5" d="M117.03193,303.35645c-1.55558,4.11426-2.3045,8.53168-2.19197,12.92874
	c0.08832,3.45029,0.68063,7.03668-0.55531,10.25937"/>
<path class="st5" d="M118.02058,311.19287c-0.37598,2.29459-0.48667,4.63239-0.32922,6.95206
	c0.16351,2.40729,0.61469,4.80734,0.468,7.21582s-1.00127,4.91974-2.92762,6.37286"/>
<path class="st5" d="M112.99976,332.92566c-0.56339,2.5365-1.92449,4.8898-3.84209,6.64304"/>
<path class="st5" d="M101.50024,345.88132c-0.95939,0.39517-1.40704,1.48511-1.68192,2.48569
	c-0.62478,2.27557-0.86316,4.65698-0.7015,7.01129c0.34588-0.01584,0.69174-0.03146,1.03761-0.04712"/>
<path class="st5" d="M103.1559,346.53976c-0.26596,1.95291-0.53175,3.90567-0.79772,5.85858
	c-0.07486,0.54959-0.14719,1.12494,0.04273,1.6459c0.18993,0.52118,0.73346,0.95856,1.27312,0.83054
	c0.06612-0.36505,0.22172-0.71344,0.44949-1.00616"/>
<path class="st5" d="M105.8623,351.52408c0.01497-1.60571,0.02978-3.21158,0.04475-4.81729
	c0.19413,1.42993,1.37103,2.32202,1.22619,3.75781"/>
<path class="st5" d="M91.25787,304.79141c-0.11709,2.26227,0.42847,4.55484,1.5517,6.52206"/>
<path class="st5" d="M96.74082,303.52786c0.13424,1.14914,0.56624,2.2623,1.24233,3.20114"/>
<path class="st5" d="M101.59949,309.89737c0.4177,2.01599-0.04324,4.19855-1.24066,5.87323"/>
<path class="st5" d="M94.57795,325.96469c-0.36218,0.92221-0.87073,1.78653-1.5009,2.55112"/>
<path class="st5" d="M74.97723,350.75412c1.75594-3.077,4.60196-5.51675,7.91094-6.78198
	c1.67266-0.63943,3.49958-1.01135,4.90947-2.1156"/>
<path class="st5" d="M91.64613,353.7312c-0.47321-0.91364-0.16099-2.02829,0.24931-2.97171
	c0.94811-2.18002,2.38762-4.14453,4.18055-5.70551"/>
<path class="st5" d="M70.85859,346.81464c1.78873,0.57178,3.00735,2.5491,2.71465,4.40396"/>
<path class="st5" d="M105.13759,275.95901c0.2335,0.14685,0.18707,0.49557,0.10464,0.7587
	c-0.58004,1.85367-1.52428,3.59277-2.76292,5.08881"/>
<path class="st5" d="M110.18652,276.28839c-0.2626,1.69418-0.76071,3.3519-1.47517,4.91031"/>
<path class="st5" d="M102.41386,225.18523c-0.2806-3.41261,1.57929-6.91,4.56562-8.58536
	c0.1075-0.06039,0.22475-0.12027,0.34755-0.10834c0.16537,0.01599,0.288,0.15494,0.39281,0.2838
	c0.32468,0.39954,0.64951,0.7989,0.97436,1.19844"/>
<path class="st5" d="M94.84257,221.67505c0.35126,0.47859,1.08791,0.2737,1.65938,0.11272
	c0.57128-0.161,1.42553-0.01717,1.40938,0.57616"/>
<path class="st5" d="M76.91385,219.11736c1.15855,0.32013,1.69805,1.68747,1.70344,2.88943"/>
<path class="st5" d="M65.82648,220.83359c1.12896,0.80899,1.94905,2.03888,2.26162,3.39226"/>
<path class="st5" d="M65.42073,228.34331c1.43176-0.58777,3.01627-0.79839,4.55182-0.60493"/>
<path class="st5" d="M78.3599,194.86775c0.60999,0.99724,1.31586,1.93576,2.10466,2.79858
	c0.74019,0.80933,1.5655,1.56062,2.53918,2.0658c2.48603,1.28961,5.68062,0.73077,7.89362-0.98579s3.51254-4.41843,3.98019-7.17982"
	/>
<path class="st5" d="M74.74559,180.01904c1.71488-1.12845,3.7748-1.72464,5.82731-1.68695
	c1.59359,0.02927,3.15421,0.42796,4.69785,0.8243c4.21824,1.08321,8.47046,2.17851,12.38286,4.0914
	c0.04475,0.24628-0.27555,0.46884-0.49071,0.34099"/>
<path class="st5" d="M88.86184,173.896c0.45774-0.89159,1.81112-0.57616,2.65913-0.04239
	c1.61985,1.01944,3.02081,2.38492,4.08164,3.97784"/>
<path class="st5" d="M84.31624,175.3688c4.82838-0.82715,10.04874,1.58232,12.55159,5.7935"/>
<path class="st5" d="M91.99016,171.72725c1.57424,0.37698,2.93299,1.55843,3.52497,3.06505"/>
<path class="st5" d="M85.42921,183.17242c1.93879-0.09471,3.90096,0.35008,5.60928,1.27161"/>
<path class="st5" d="M75.83855,184.08353c1.18313-0.93953,2.7525-1.37642,4.25087-1.18346"/>
<path class="st5" d="M86.82077,185.84299c0.93752,0.05098,1.88159-0.02136,2.80044-0.21465"/>
<path class="st5" d="M76.46519,186.51926c0.8465,0.05316,1.69301,0.10649,2.53952,0.15982"/>
<path class="st5" d="M79.28833,192.27153c2.93654,0.46599,5.94944,0.44714,8.87992-0.05551
	c-0.68333,1.42857-1.56786,3.02266-3.11737,3.34953C83.85547,195.81772,80.09884,193.1855,79.28833,192.27153z"/>
<path class="st5" d="M79.14097,196.99361c-0.08394,0.07536-0.11288-0.16722-0.00067-0.15628
	c0.11237,0.01077,0.15578,0.14922,0.17277,0.26074c0.31458,2.0769,0.62916,4.15364,0.94374,6.23055"/>
<path class="st5" d="M95.15681,201.25407c2.13376-1.16698,4.80147-1.3046,7.04424-0.36371"/>
<path class="st5" d="M104.08366,209.84818c-0.43924,1.28911,0.05837,2.74947,0.92742,3.798
	c0.86905,1.04872,2.06211,1.76755,3.23127,2.46617"/>
<path class="st5" d="M74.0515,214.5329c-1.21728-2.48032-1.42083-5.44006-0.5543-8.06352"/>
<path class="st5" d="M78.70947,246.74004c5.49237-0.09218,10.98576-0.11404,16.47846-0.06593"/>
<path class="st5" d="M98.74051,247.05882c2.65727-0.2668,5.28797-0.79637,7.84147-1.57845"/>
<path class="st5" d="M106.50375,240.6747c-1.38651,1.89203-3.36248,3.34566-5.58137,4.1062
	c-0.00353-0.08395-0.00723-0.16772-0.01077-0.25166"/>
<path class="st5" d="M94.3712,234.89702c-2.06899,0.59467-3.54652,2.79404-3.31503,4.9342
	c1.4511-0.58795,2.66535-1.73962,3.32916-3.15759"/>
<path class="st5" d="M101.08556,245.0768c-2.10264,1.1431-4.66251,1.41411-6.95811,0.73717
	c-0.49727-0.1467-1.00413-0.35109-1.33789-0.74792c-0.46716-0.55582-0.48869-1.34512-0.67307-2.0473
	c-0.20961-0.79874-0.65944-1.5327-1.27599-2.08195c0.83607-0.57011,1.67199-1.1404,2.50806-1.71051
	c1.85922-1.26807,3.76067-2.55617,5.92606-3.16934c-0.34436-0.00775-0.68871-0.01532-1.03307-0.02306"/>
<path class="st5" d="M97.72527,234.77757c1.34446-0.19733,2.717,0.01245,4.07138-0.09857
	c1.35438-0.11087,2.8065-0.6507,3.43212-1.85687"/>
<line class="st4" x1="98.18503" y1="263.22153" x2="97.18326" y2="246.15646"/>
<path class="st4" d="M97.02142,236.95508c-0.3208-1.35757,7.53378-40.78291,7.53378-40.78291"/>
<line class="st4" x1="74.20407" y1="196.48506" x2="70.39715" y2="227.21115"/>
<line class="st4" x1="67.6936" y1="238.69974" x2="63.75008" y2="258.70538"/>
<line class="st4" x1="111.66556" y1="238.1631" x2="117.79248" y2="252.49199"/>
<g>
	<path class="st5" d="M47.48645-189.7506c0.46833-2.40865,2.34724-4.48825,4.69616-5.19765"/>
	<path class="st5" d="M51.68314-198.29675c1.34193-0.73465,2.8854-1.09734,4.41422-1.03728"/>
	<path class="st5" d="M62.95606-195.72359c0.9101,0.4187,1.72935,1.03323,2.3861,1.78957"/>
	<path class="st5" d="M68.63045-190.06871c1.15554,0.71024,2.09306,1.77005,2.65711,3.00365"/>
	<path class="st5" d="M118.73639-81.78038c-0.8662,0.63538-1.73256,1.27077-2.59875,1.90616"/>
	<path class="st5" d="M111.79307-84.78874c-0.49105,2.12485-2.07909,3.96472-4.1094,4.76093"/>
	<path class="st5" d="M105.92202-76.08344c-0.61066,0.26596-1.22114,0.53209-1.83163,0.79806"/>
	<path class="st5" d="M103.2104-81.49355c0.42494-1.22367,1.3019-2.28467,2.42396-2.93216"/>
	<path class="st5" d="M110.97836-77.32747c0.91766,0.16806,1.89909-0.56036,2.00389-1.48727"/>
	<path class="st5" d="M114.85342-85.96379c0.39768-0.19884,0.79536-0.39769,1.19305-0.59653
		c-0.39769,0.09942-0.79537,0.19884-1.19305,0.29826"/>
	<g>
		<path class="st2" d="M128.12315-108.33181c0.76442-2.11256,1.40973-4.91166,1.151-7.62428
			c-0.2589-2.71279-0.80125-5.02269-1.86578-8.30257c-1.06454-3.27988,0.75632-5.01041-4.41406-9.13309
			c-5.17056-4.12251-5.17056-4.12251-8.69705-7.32855c-3.52632-3.20602-3.1564-2.70454-7.35698-7.34923
			c-4.20039-4.64452-6.19386-4.72275-9.58881-8.80019c-3.39478-4.07742-6.1074-8.98926-7.62395-12.95953
			c-1.51655-3.97044-8.62691-12.21985-10.91207-14.79285s-4.28687-5.54889-5.24441-6.58466
			c-0.95753-1.03577-0.67408-1.43866-1.06436-3.28004c-0.39044-1.84122-1.9482-1.85367-3.50597-1.86595
			c-1.55776-0.01245-13.8841-5.4382-17.56688-4.65747c-3.68261,0.7809-6.03776,3.09903-8.17522,5.44998
			c-2.13729,2.35094-4.41439,2.67561-5.34332,5.87726c-0.92911,3.202,0.09437,3.80206,1.85754,5.40508
			c1.76333,1.60301,1.73036,1.82086,0.56305,3.6498c-1.16748,1.82895-1.55776-0.01227-2.26885,3.22235
			c-0.71125,3.23463-0.27555,3.3004-0.90858,4.54173c-0.63303,1.24117-1.96049-0.29607-1.51671,2.66737
			c0.44377,2.96346,0.06156,4.0199,2.42495,4.59944c2.36322,0.57953,3.20166,0.92894,4.38966,0.4399
			c1.18784-0.48903-0.71933,0.33696,3.31285-1.2822c4.03202-1.61934,7.67374-5.08006,5.524-1.17136
			c-2.14974,3.90871-2.71683,4.71434-3.78573,5.88972c-1.06857,1.17555-2.3427,0.76038-3.0743,2.65509
			c-0.73178,1.89488-2.35532,2.31813,0.25872,2.71278c2.61404,0.39467,3.11552,0.02473,4.45543,0.00421
			c1.33991-0.02052,0.62075,0.3166,2.49494-0.2917c1.87436-0.60831,1.59074-0.2054,3.0622-1.09734
			c1.47146-0.89192,2.05099-3.25514,2.87698-1.34814c0.82616,1.90717,0.58795,0.53429,1.83719,4.06516
			c1.2494,3.53053,2.73382,4.64838,2.71901,6.65009c-0.0148,2.00188-1.10944,4.8262-2.11105,7.03264
			c-1.00144,2.20644-1.81262,4.62804-2.70892,7.61201c-0.89597,2.98396-0.84264,4.10603-3.40319,4.83344
			c-2.56072,0.7274-7.34503,2.90154-9.19887,4.84975c-1.85366,1.94821-4.11024,3.6128-6.11598,5.09234
			c-2.00574,1.47971-6.82303,3.87152-8.16294,3.89204s-3.12107,1.53404-6.51114,0.35395
			c-3.39024-1.18027-6.18916-1.82574-8.49922-1.28322c-2.30989,0.54252-7.02843,2.28096-8.097,3.45634
			c-1.06873,1.17555-2.54019,2.06748-3.08693,4.21302c-0.54673,2.14537-0.52621,3.48528-0.97436,4.97727
			c-0.44798,1.49198,3.51035-2.58932,3.37863-1.71792c-0.13155,0.87141-2.23604,3.0045-2.09624,5.03077
			c0.13963,2.02627,3.60875-3.24287,3.16077-1.75089c-0.22845,0.76054-0.8714,1.98135-1.38432,3.1522
			c0.82514-0.60258,2.24159-1.11736,4.67244-1.31889c8.57375-0.71091,8.29029-0.30819,11.77557,0.21819
			c3.48545,0.52621,2.54827,0.83019,6.60097,0.55094c4.05254-0.27943,4.73906-0.3987,7.73531-1.06033
			c2.99642-0.66163,4.89114,0.06998,7.26681-0.90807c2.37584-0.97823,4.50775,0.04408,5.74656-1.71523
			c1.23898-1.75912,1.98068-2.24277,2.77386-0.11775c0.79335,2.12502-0.50568,4.82536-0.58374,6.81882
			c-0.07822,1.99346,1.2494,3.5307,0.6041,6.3298c-0.64548,2.79892-0.53865,5.04304-0.53865,5.04304l0.55143,0.0498
			c-0.35563,0.86855-0.55143,1.76048-0.55143,2.67225c0,8.565,16.35901,15.50832,36.53876,15.50832
			c17.11031,0,31.46897-4.99258,35.44244-11.73217l1.43446,0.12953c0,0-0.27101-1.15453-0.43688-2.82214
			c0.0582-0.35832,0.09858-0.71883,0.09858-1.08354c0-0.57331-0.07873-1.13854-0.22155-1.6957
			c0.01547-1.01945,0.10498-2.08817,0.31777-3.12461c0.84264-4.10603,1.27818-4.04025,2.12098-8.14629
			c0.84264-4.10587,0.70302-6.1323,0.59619-8.37642C128.16403-105.65199,127.35841-106.21907,128.12315-108.33181z"/>
		<path class="st5" d="M55.1575-186.25253c-1.58553,0.83507-2.82719,2.30148-3.3894,4.00308
			c-0.22273,0.67441-0.3092,1.50426,0.18303,2.01634c0.66347,0.69005,1.82254,0.31087,2.64618-0.17697
			C55.53769-180.96742,54.33891-185.52815,55.1575-186.25253z"/>
		<path class="st5" d="M125.38092-108.11395c-2.23453-0.04929-3.37963,2.55163-4.35752,4.56141
			c-1.87756,3.85874-5.24054,6.97124-9.23302,8.54498c-1.3024,0.51342-2.77925,0.95434-3.51893,2.14301
			c-0.56474,0.90724-0.56389,2.06345-1.03627,3.02216c-0.51476,1.04434-1.52916,1.74046-2.53211,2.33193
			c-4.16761,2.4581-8.91071,3.93343-13.73741,4.27308"/>
		<path class="st5" d="M104.48235-119.66679c-2.08498,3.56519-4.47646,7.01682-7.62512,9.68958
			c-3.14867,2.67275-7.13846,4.52339-11.26837,4.48454c-0.75247-0.00706-1.5184-0.07452-2.24681,0.11388
			c-3.16296,0.81774-3.80626,5.71326-6.96434,6.5495c-1.15554,0.306-2.37164-0.03331-3.56637-0.07486
			c-4.20999-0.14635-7.57432,3.29452-10.34852,6.46471c2.45895-0.14114,4.90426-0.5178,7.29154-1.12341
			c-3.16767,1.9975-4.69163,6.26469-3.50597,9.81676c1.68964-2.30888,4.08197-4.09611,6.77525-5.06138
			c-1.92231,3.08305-3.88213,6.98032-2.08532,10.13807c0.97672-3.30629,3.85975-5.97417,7.23182-6.69182
			c-1.41864,2.80986-1.35033,6.31987,0.17664,9.07236c0.41333-3.83047,4.80265-6.68172,8.47046-5.50196"/>
		<path class="st5" d="M117.60439-108.90226c-1.16849,2.82837-3.69624,5.05853-6.64807,5.86549"/>
		<path class="st5" d="M107.10767-102.66045c-0.99454,1.50309-2.48703,2.67023-4.18526,3.27332"/>
		<path class="st5" d="M95.17935-89.46489c2.3861-0.34167,4.63477-1.57088,6.21036-3.39511"/>
		<path class="st5" d="M106.80032-96.99934c0.29827-0.29826,0.59653-0.59653,0.89479-0.89478
			C107.39685-97.59587,107.09859-97.29761,106.80032-96.99934"/>
		<path class="st5" d="M121.19095-95.18739c-0.87376,2.8758-3.19442,5.27116-6.04111,6.23576"/>
		<path class="st5" d="M118.4837-95.46328c-1.44707,1.65348-3.53003,2.7355-5.71476,2.96883"/>
		<path class="st5" d="M119.59483-88.09235c-0.92019,0.69393-1.63969,1.65079-2.05083,2.72743"/>
		<path class="st5" d="M120.59308-83.18421c1.27582-0.97504,1.94804-2.68151,1.68006-4.26467"/>
		<path class="st5" d="M106.44318-130.38356c0.41653,1.17035-0.08226,2.59874-1.13703,3.25532"/>
		<path class="st5" d="M70.67152-163.74944c1.7487,1.12071,2.90053,2.98616,3.63416,4.92932
			c0.73347,1.94316,1.10272,4.00122,1.64625,6.00597c0.57113,2.10684,1.33504,4.15565,2.09794,6.20076
			c0.49425,1.32494,1.14275,2.80566,2.48316,3.25583"/>
		<path class="st5" d="M57.90006-160.48891c3.1554-1.14308,5.75749-3.72398,6.92632-6.86996"/>
		<path class="st5" d="M63.26525-155.53569c3.48024,0.49525,7.17344-0.94508,9.3994-3.66562"/>
		<path class="st5" d="M63.36787-147.88499c1.76585,1.12256,3.84595,1.74483,5.93816,1.77646
			c1.19305,0.01816,2.68185-0.4231,2.83813-1.60605"/>
		<path class="st5" d="M53.69966-105.94016c-0.03129-2.90272,0.03028-5.84093,0.77602-8.64642
			c0.74575-2.80548,2.24244-5.49927,4.60364-7.18807"/>
		<path class="st5" d="M68.19542-120.75101c1.21812,1.44169,2.81828,2.55769,4.59204,3.2025"/>
		<path class="st5" d="M67.11542-115.18512c0.70318,1.41057,1.88176,2.57906,3.29855,3.26979"/>
		<path class="st5" d="M65.68333-108.63932c0.1058,0.64851,0.54958,1.23241,1.14611,1.50797
			c-0.39634-0.50013-0.79268-1.0001-1.18902-1.50023"/>
	</g>
</g>
<text transform="matrix(1 0 0 1 102.54385 -232.37982)"><tspan x="0" y="0" class="st7 st8">Latex</tspan><tspan x="-11.01172" y="18" class="st7 st8">Disfraz</tspan><tspan x="-12.44727" y="36" class="st8" style="font-family:'Roboto-LightItalic';">(Pesa</tspan><tspan x="1.50879" y="54" class="st8" style="font-family:'Roboto-LightItalic';">hasta unos</tspan><tspan x="-4.38379" y="72" class="st8" style="font-family:'Roboto-LightItalic';">100kg)</tspan></text>
<line class="st6" x1="51.88855" y1="224.98769" x2="58.26388" y2="224.98769"/>
<text transform="matrix(1 0 0 1 12.61774 229.43668)" class="st7 st8">Actor</text>
<g>
	<g>
		<path class="st9" d="M208.97615,336.75568c-0.1465,0.43951-3.51605,3.80905-5.56709,4.98108
			c-2.05103,1.172-6.59259,4.10205-7.1786,9.08313c-0.586,4.98108-0.4395,6.73911,3.36955,7.6181
			c3.80905,0.87903,12.74568,3.51605,21.53581,1.17203c8.79013-2.34406,11.13417-4.39508,13.4782-8.64365
			c2.34404-4.24854,1.61153-10.69464,1.02553-11.13416C235.05353,339.3927,208.97615,336.75568,208.97615,336.75568z"/>
		<path class="st9" d="M255.27083,340.41824c-0.14651,1.75803,0,6.29959,0.586,9.22961c0.58601,2.93005,0,8.05762,3.95555,9.66916
			c3.95557,1.61151,10.54816,2.78354,18.60577,1.61151s11.72018-3.22305,12.4527-5.12756
			c0.73251-1.90454,0.879-3.66257-1.02551-8.20413c-1.90454-4.54156-6.73911-9.96216-6.73911-9.96216L255.27083,340.41824z"/>
		<path class="st9" d="M301.85849,267.60666c-1.86325-4.6091-7.86038-10.52802-12.80972-14.51125
			c-0.20865-1.99216-0.34818-3.42912-0.37546-3.94803c-0.14651-2.78354-1.75803-13.77118-1.75803-13.77118l-89.21982,7.0321
			l-0.73251,3.36954c0,0-13.3317,1.75803-22.12183,6.73907c-8.79013,4.98106-10.69461,10.25514-11.42717,15.67574
			c-0.7325,5.42056,6.44612,6.59262,11.72018,6.15308c5.27408-0.43948,18.75229-2.49051,18.75229-2.49051
			s-0.29301,7.17859-0.87901,12.45267c-0.58603,5.27408-2.93005,25.78439-0.43953,35.01401
			c2.49054,9.22964,7.76462,14.50372,13.47821,17.87329c5.71356,3.36954,14.79672,4.39505,27.10289,4.54156
			c12.30618,0.14651,20.2173,1.02551,30.91196,0.43948c10.69467-0.586,17.14078-1.75803,20.9498-4.24857
			c3.80908-2.49051,8.93665-9.52261,10.69467-19.33829c1.75803-9.81564-0.73251-18.60577-1.31851-21.97531
			c-0.58603-3.36954-2.19754-15.52921-2.19754-15.52921s-0.01669-0.14474-0.04568-0.39606
			c2.59644,0.46194,5.05795,0.57779,7.2243,0.24954C304.20251,280.20584,304.64206,274.49225,301.85849,267.60666z"/>
		<path class="st10" d="M203.40906,248.56139c1.17203,1.17201,3.22305,4.83458,1.75803,11.42717
			c-1.46501,6.59259-5.12756,12.15967-11.28065,11.86667"/>
		<path class="st10" d="M274.3161,247.09637c-3.2009,1.34773-6.88559,8.93661-6.15308,16.70123
			c0.73248,7.76462,8.05762,11.13416,14.06418,13.77121c6.00659,2.63702,12.30618,4.10205,17.14075,3.36954
			c4.83459-0.73251,5.27408-6.44608,2.49054-13.3317c-2.78354-6.88559-14.79669-16.70123-18.75226-18.60576
			S277.09964,245.92435,274.3161,247.09637z"/>
		<path class="st9" d="M215.42224,164.17616c0,0-8.79013-15.08972-16.84775-24.17285
			c-8.05762-9.08315-19.77779-17.72677-22.56133-19.04529s-3.22305,1.61153-3.22305,2.93005s0.73251,16.70124,3.51605,27.3959
			s11.13417,29.59343,16.40823,35.45352c0,0-5.42058,11.57367-6.44609,23.44034s1.75803,23.87985,7.1786,29.15393
			s18.75227,8.20412,26.07739,9.37613c7.3251,1.17203,17.43375,2.93005,23.58684,1.90453
			c6.15309-1.02551,21.2428-3.22304,27.54239-3.80905c6.29959-0.586,12.4527-3.66255,16.40826-9.22963
			c3.95554-5.56708,6.73907-14.65022,7.3251-24.02635c0.586-9.37614-2.63705-22.26833-6.00659-26.22388
			c0,0,7.6181-11.86668,11.57367-19.48479c3.95557-7.61812,8.05762-15.38274,10.25516-26.51689
			c2.19751-11.13416,3.22302-16.84775,3.22302-19.33828c0-2.49054-1.90451-3.36955-3.36954-2.34404
			c-1.46503,1.02552-16.99426,10.54816-21.38931,14.50372s-14.21069,15.23622-17.58026,20.07079
			c-3.36954,4.83458-5.86008,9.37614-5.86008,9.37614s-8.49713-3.36955-22.85434-4.10207
			C228.02142,158.75558,215.42224,164.17616,215.42224,164.17616z"/>
		<path class="st10" d="M313.43216,121.98354c0-2.49055-1.90451-3.36954-3.36954-2.34402
			c-1.2594,0.88158-12.90662,8.03986-18.94489,12.54545c3.1373,0.97662,7.06763,3.44267,10.30127,8.69734
			c2.72147,4.42244,4.20721,9.7301,4.97604,13.40775c1.522-3.85652,2.85101-8.08864,3.81406-12.96823
			C312.40665,130.18765,313.43216,124.47408,313.43216,121.98354z"/>
		<path class="st10" d="M176.01317,120.95804c-2.78354-1.31852-3.22305,1.61151-3.22305,2.93003s0.7325,16.70124,3.51604,27.3959
			c0.13058,0.50168,0.27719,1.02672,0.43137,1.56233c1.12381-5.62326,3.15889-11.47028,7.77278-15.18701
			c3.01277-2.42696,6.35828-3.08414,8.6749-3.20235C186.02821,127.64326,178.21786,122.00238,176.01317,120.95804z"/>
		<path class="st10" d="M287.9408,187.17699c-2.19754-1.46501-7.6181-7.0321-10.40164-10.84116s-8.20413-9.22963-8.20413-9.22963"/>
		<path class="st10" d="M212.7852,206.36877c2.04324-8.46484-4.24857-10.84116-7.76462-9.22963
			c-3.51605,1.61151-6.88559,8.05762-5.27408,13.62469C201.35803,216.33092,210.73418,214.86589,212.7852,206.36877z"/>
		<path class="st10" d="M266.991,198.89717c-4.84329-4.21834-11.28067-3.36955-13.62471,1.02551
			c-2.34402,4.39507-1.30841,12.36549,7.91112,13.4782C269.77454,214.42639,271.53256,202.85272,266.991,198.89717z"/>
		<path class="st10" d="M230.36546,216.91693c-1.93472-0.96736-2.63704-2.49054,0.1465-2.93005
			c2.78354-0.4395,4.54156,0.73251,3.66255,1.46503S232.12349,217.79594,230.36546,216.91693z"/>
		<path class="st10" d="M215.12924,213.69388c2.93004-2.19753,10.69466-4.98106,18.89877-4.54156s17.43375,5.27408,17.43375,5.27408
			"/>
		<path class="st10" d="M222.01483,224.97455c0,0,6.8856-1.75803,8.05762-2.19754c1.17203-0.4395,2.63704-0.73251,5.42058,0
			c2.78355,0.73251,7.32512,2.05104,7.76462,2.34404c0.43951,0.293-0.87901,5.86008-2.63704,8.79013
			c-1.75803,2.93004-6.44609,6.59259-7.91112,6.73909c-1.46501,0.1465-6.29959-5.12756-8.05762-7.7646
			S220.11031,226.58607,222.01483,224.97455z"/>
		<path class="st10" d="M197.40248,221.4585c-1.90453-5.12758-6.29959-5.86009-8.35063-3.80905
			c-2.05103,2.05103-1.02551,9.22963,0.58601,13.62469s4.83456,7.7646,7.91112,9.37613
			c3.07654,1.61153,5.71358,2.78354,5.12758-1.46501C202.09055,234.93669,197.40248,221.4585,197.40248,221.4585z"/>
		<path class="st10" d="M266.698,233.76468c0.3158-6.00008,4.10205-14.65022,8.93661-16.99425
			c4.83456-2.34404,10.40167,0,11.28067,5.86008c0.87903,5.86009-2.49054,13.3317-6.73911,16.26173
			c-4.24857,2.93005-10.69464,2.78354-12.01315,1.90453C266.84448,239.91776,266.55148,236.54822,266.698,233.76468z"/>
		<path class="st10" d="M277.11823,244.7637c0,0,9.48608,2.62276,11.93054,8.33171"/>
		<path class="st10" d="M280.46124,243.4265c0,0,6.06076,1.07843,8.21207,5.72089"/>
		<path class="st10" d="M265.75195,254.79276c-0.33429,5.01453,0.66861,8.69183,4.01163,13.70639"/>
		<path class="st10" d="M272.43799,254.79276c-2.0058,3.00873-2.67441,8.02325-2.0058,11.03195"/>
		<path class="st10" d="M273.1066,260.47589c-0.66861,2.67441-1.67151,6.68604-0.33429,9.36044"/>
		<path class="st10" d="M274.77811,264.82181c-0.66861,1.67151-1.67151,6.01743,0.33432,7.35464"/>
		<path class="st10" d="M201.2317,254.12415c0.66861,1.67151,1.0029,6.35175-1.3372,11.03195
			c-2.34012,4.68024-3.67732,4.01163-3.67732,4.01163"/>
		<path class="st10" d="M198.5573,258.80438c0,0-1.00291,6.35172-5.34883,10.36334"/>
		<path class="st10" d="M193.87706,262.1474c0,0-0.66859,4.01163-3.67732,7.02032"/>
		<path class="st10" d="M273.77521,277.85959c2.67441,3.34302,6.35175,4.34592,10.69766,5.34882"/>
		<path class="st10" d="M278.45544,286.55142c2.34009,1.33722,5.34882,1.67151,7.68893,1.33722"/>
		<path class="st10" d="M281.12985,293.57178c1.33719,1.0029,3.0087,1.67151,5.68314,1.0029"/>
		<path class="st10" d="M282.46704,298.5863c2.00583,1.67151,4.01163,2.34012,5.68314,2.0058"/>
		<path class="st10" d="M289.82169,306.94385c0,0,2.67441,18.05231-10.69766,28.08136"/>
		<path class="st10" d="M285.81006,317.9758c0,0-2.34009,11.03195-11.03195,17.04941"/>
		<path class="st10" d="M277.11823,325.66473c0,0-1.0029,4.68024-6.35175,8.35754"/>
		<path class="st10" d="M208.92065,261.47879c0,0-0.3343,8.02325-11.03197,13.70639"/>
		<path class="st10" d="M208.58635,271.50784c0,0-3.67732,5.34885-10.02905,7.02036"/>
		<path class="st10" d="M220.62122,209.99631c0,0,12.36917-5.68314,25.40694-0.66861"/>
		<path class="st10" d="M270.43219,172.88881c0,0,2.67441,2.67441,5.01453,5.34882
			c2.34012,2.67442,10.02905,9.02615,10.02905,9.02615"/>
		<path class="st10" d="M277.11823,169.88008c0,0,3.67731,6.35175,5.34882,8.69185c1.67151,2.34012,5.34885,4.68024,5.34885,4.68024
			"/>
		<line class="st10" x1="283.46997" y1="174.56032" x2="288.15018" y2="179.24054"/>
		<line class="st10" x1="287.14728" y1="173.89171" x2="290.82458" y2="175.89752"/>
		<line class="st10" x1="289.82169" y1="171.2173" x2="293.83331" y2="170.54869"/>
		<path class="st10" d="M181.50789,151.82779c-0.33429,1.3372,0.3343,7.35464,1.33722,10.02905
			c1.0029,2.67441,6.68604,12.70348,6.68604,12.70348"/>
		<line class="st10" x1="192.20555" y1="172.5545" x2="190.86835" y2="177.56903"/>
		<path class="st10" d="M201.2317,168.54288c-3.67732,2.34012-8.35754,11.70056-8.35754,11.70056"/>
		<path class="st10" d="M205.57762,173.2231c0,0-8.67703,7.97356-12.86322,13.51439c0,0,6.8856-13.0387,17.14076-19.48479"/>
		<path class="st10" d="M208.58635,341.04263c0.66859,1.0029,8.35754,3.00873,17.04939,3.00873s6.68604-1.00293,6.68604-1.00293"/>
		<path class="st10" d="M210.92645,344.38565c0,0,11.36627,2.67441,20.72672,0.66861"/>
		<path class="st10" d="M214.60378,349.06589c0,0,9.69476,1.67151,16.71509-1.00293"/>
		<path class="st10" d="M215.27238,353.07748c1.0029,0,7.02034,1.33722,14.04068-1.33719"/>
		<path class="st10" d="M258.73163,345.05426c0,0,12.03485,0.33429,21.061-2.67441"/>
		<path class="st10" d="M258.39731,347.06006c1.00293,0,6.35175,1.33722,12.70349,0"/>
		<path class="st10" d="M259.40024,348.73157c0,0,4.34592,2.00583,8.02322,1.33722"/>
		<path class="st10" d="M260.06882,351.7403c0,0,3.67734,1.67151,6.35175,1.67151"/>
	</g>
</g>
<rect x="456.01071" y="-124.9879" class="st11" width="188.2565" height="147.63274"/>
<text transform="matrix(1 0 0 1 474.43188 -113.73783)"><tspan x="0" y="0" class="st7 st8">Ya que productos como </tspan><tspan x="-13.19092" y="18" class="st7 st8">el cuacho escaseaban </tspan><tspan x="-0.83496" y="36" class="st7 st8">después de la Segunda Guerra Mundial. El original </tspan><tspan x="-14.97461" y="54" class="st7 st8">Godzilla de 1954 fue </tspan><tspan x="-8.83301" y="72" class="st7 st8">creado a partir de concreto </tspan><tspan x="46.97754" y="90" class="st7 st8">premezclado.</tspan></text>
<rect x="172.05481" y="6.92554" class="st11" width="137.54422" height="147.63274"/>
<text transform="matrix(1 0 0 1 183.94722 18.17562)"><tspan x="0" y="0" class="st12 st7 st8"> hoy en día, la mayoría </tspan><tspan x="-8.59863" y="18" class="st12 st7 st8">de los disfraces </tspan><tspan x="8.41895" y="36" class="st12 st7 st8">se hacen con algodón pp, </tspan><tspan x="1.06543" y="54" class="st12 st7 st8">poliespuma, plástico, </tspan><tspan x="-8.63525" y="72" class="st12 st7 st8">y otros materiales. </tspan><tspan x="-9.81055" y="90" class="st12 st7 st8">Reduciendo su peso </tspan><tspan x="15.72852" y="108" class="st12 st7 st8">a unos 8kg.</tspan></text>
<path class="st6" d="M65.38664-200.17892c0,0-0.29411-35.33365,31.11768-36.69937"/>
</svg>
