<?xml version="1.0" encoding="utf-8"?>
<!-- Generator: Adobe Illustrator 23.0.2, SVG Export Plug-In . SVG Version: 6.00 Build 0)  -->
<svg version="1.1" id="Layer_1" xmlns="http://www.w3.org/2000/svg" xmlns:xlink="http://www.w3.org/1999/xlink" x="0px" y="0px"
	 viewBox="0 0 320 186.08" style="enable-background:new 0 0 320 186.08;" xml:space="preserve">
<style type="text/css">
        @import url('https://fonts.googleapis.com/css?family=Roboto:300,400,700');
	.st0{fill:none;stroke:#000000;stroke-width:0.35;stroke-miterlimit:10;}
	.st1{fill:#A7A9AC;stroke:#000000;stroke-width:2.29934;stroke-miterlimit:10;}
	.st2{fill:#D1D3D4;stroke:#000000;stroke-width:2.29934;stroke-miterlimit:10;}
	.st3{fill:#FFFFFF;stroke:#000000;stroke-width:2.29934;stroke-miterlimit:10;}
	.st4{fill:none;stroke:#000000;stroke-width:2.29934;stroke-miterlimit:10;}
	.st5{fill:none;stroke:#000000;stroke-width:0.80477;stroke-miterlimit:10;}
	.st6{font-family:'Roboto';font-weight: 300;}
	.st7{font-size:15px;}
	.st8{font-family:'Roboto';font-weight: 300; font-style:italic}
	.st9{fill:none;stroke:#000000;stroke-width:0.5;stroke-miterlimit:10;}
	.st10{fill:#FFFFFF;stroke:#A7A9AC;stroke-width:2.29934;stroke-miterlimit:10;}
	.st11{fill:none;stroke:#A7A9AC;stroke-width:0.80477;stroke-miterlimit:10;}
</style>
<rect x="-92.79945" y="264.13461" style="fill:none;" width="55.5989" height="32.3794"/>
<text transform="matrix(1 0 0 1 -92.79973 270.59686)"><tspan x="0" y="0" style="font-family:'Amplitude-Light'; font-size:9px;">El primer Godzilla </tspan><tspan x="0" y="10.7998" style="font-family:'Amplitude-Light'; font-size:9px;">fue animado </tspan><tspan x="0" y="21.59961" style="font-family:'Amplitude-Light'; font-size:9px;">por un actor</tspan></text>
<line class="st0" x1="-44.1824" y1="441.87823" x2="-12.63589" y2="441.87823"/>
<path class="st1" d="M58.47539,503.09961c0,0,6.10723-2.1077,10.11956-3.05179c4.01234-0.94406,39.56816-1.81143,45.32279-1.06097
	c5.75447,0.75046,5.64579,1.51569,7.71563,2.43488s5.32331,0.00977,3.96775,3.62036
	c-1.35555,3.61078-12.58557,12.99637-22.65685,14.47122c-10.07128,1.47498-31.60608,1.70056-37.90829-3.08038
	C58.73395,511.65198,58.47539,503.09961,58.47539,503.09961z"/>
<path class="st2" d="M77.26762,562.03381c0.38052,0.39935,0.69628,4.24799,3.97482,9.42078
	c3.27854,5.17291,27.7248,13.17853,34.88815,14.62494c7.16335,1.44641,10.4979,2.30756,15.6592-1.22382
	c5.16115-3.53143,5.96626-2.55438,10.74722-8.85657c4.78094-6.30219,3.91795-8.54395,8.28557-12.79938
	c4.36761-4.25555,4.62064-4.26703,8.33369-6.21136s2.8615-3.93311,8.44942-3.68195
	c5.58777,0.25116,9.84149-0.95752,11.69316,0.73193c1.85164,1.6897,4.47375,3.59735,6.70392,2.48132
	c2.22998-1.11597,2.29779-5.17456-0.85341-7.56506c-3.15102-2.39044-6.37169-6.29852-10.47653-7.37799
	c-4.10503-1.07935-8.48611-2.65308-14.69377,0.16589c-6.20767,2.81873-8.46103,3.42889-15.84088,8.32928
	c0,0-7.18472,3.62408-12.71461,4.63763c-5.53005,1.01355-11.7547-13.14929-16.46988-16.48218
	c-4.715-3.3327-14.82111-2.61658-16.07422-2.30566C97.62635,536.23248,77.26762,562.03381,77.26762,562.03381z"/>
<path class="st3" d="M67.6936,485.89474c-0.54067-0.73566-3.91005-2.35583-4.01418-4.63223
	c-0.1043-2.27643-0.88621-2.74762-1.7492-4.98938c-0.86316-2.24161-1.73776-4.73639-1.05998-6.5416
	c0.67777-1.80539,1.58534-4.12823,2.97555-6.97998c1.39038-2.85193,2.78059-5.70367,3.43515-8.01492
	c0.65456-2.31122,0.59669-3.57593,1.76888-5.65738c1.17203-2.08145,2.36726-3.65689,3.10291-4.19754
	c0.73565-0.54068,4.94295-2.76093,4.94295-2.76093l-1.94417-3.71304c-0.40357-3.2767-1.35741-1.96573-0.85341-7.56509
	c0.50417-5.59952,1.62572-7.77972,3.07801-10.27988c1.45245-2.49997,1.32091-4.36948,5.32162-5.56638
	c4.00072-1.19708,8.09178-0.42175,10.75546,2.39685s3.68715,3.02521,4.12538,7.06058
	c0.43822,4.03555,1.20852,4.25372,0.56557,6.81799c-0.64313,2.56406-0.34385,3.56418-1.51588,5.6456
	c-1.17202,2.08145-2.11442,3.64545-2.11442,3.64545s0.89782,3.00061,5.19782,2.80362c4.29999-0.19681,7.10547,0.1817,7.10547,0.1817
	s0.4596-1.03491,2.32285,0.90756c1.86326,1.9425,2.92123,2.90793,3.00231,4.6785s0.15056,3.2883,2.24362,4.71332
	c2.09305,1.42487,2.40376,2.67816,5.08376,5.85052c2.67998,3.17239,3.92148,2.60867,5.11857,6.60941
	c1.19709,4.0007,2.81894,6.20764,1.61211,7.53024c-1.20686,1.32257-0.80968,2.06494-4.09158,4.74982
	c-3.2819,2.68503-3.65517,3.20908-6.36798,4.85397c-2.71296,1.64505-7.21954,2.86536-7.93214,3.91171
	c-0.71243,1.04654-1.75896,0.33411-0.57348,4.08182c1.18549,3.74789,0.6332,2.75922,1.53101,5.75986
	c0.89782,3.00046,1.8535,7.26578,1.8535,7.26578l0.37061,8.09418c0,0-28.51293,2.82617-34.65297,1.5863
	c-6.14004-1.23962-13.0968-3.70932-12.37277-4.50302c0.72404-0.79352,3.91964-2.96747,7.05737-6.40634
	c3.13773-3.43866,4.87364-4.27863,6.51669-7.14197c1.64322-2.86353,1.59695-3.87524,1.4464-7.16351
	c-0.15056-3.28812,0.11407-3.04691-0.84163-7.31207c-0.95568-4.26535-1.66828-3.21881-2.12955-7.76019
	c-0.46145-4.54123-2.46366-9.51901-2.46366-9.51901s-0.88436,2.8287-3.0797,4.7034c-2.1955,1.87485-1.37877,3.10477-1.3209,4.36948
	c0.05804,1.26471,1.54094,0.43637,2.88657,2.14905c1.34579,1.71271,3.1628,2.64349,2.2204,4.20749
	c-0.94223,1.564-2.23016,1.116-2.41352,2.64517c-0.18353,1.52914,0.62159,2.5062-0.6083,3.32294
	C70.00468,486.54932,67.6936,485.89474,67.6936,485.89474z"/>
<path class="st4" d="M105.89746,478.82275c0.95383-1.311,11.03487-8.10928,10.01157-8.31586
	c-1.02332-0.2066-6.63613-6.53992-6.84288-5.5166c-0.20658,1.02332,0.88621,2.74762-0.04441,4.56461
	C108.09095,471.37173,105.89746,478.82275,105.89746,478.82275z"/>
<path class="st2" d="M56.84563,503.62732c1.24167-0.56372,1.08657-1.30576,5.38134,1.27448
	c4.29478,2.58041,4.25541,4.36761,11.67178,5.8024c7.41636,1.43478,9.76225,2.84824,18.79878,0.91382
	c9.03636-1.9346,9.53061-2.21066,14.55464-3.20117c5.02422-0.99033,2.08145,1.17221,6.32357-0.28949
	c4.24213-1.46155,3.05782-0.39331,6.39759-1.81366c3.33977-1.42032,4.47713-4.26044,5.62779-1.27161
	c1.15066,2.98901,3.45029,3.39075,3.7282,9.46133c0.27791,6.07056,0.63504,8.33551-0.17984,12.68176
	s-0.62881,2.87225-0.81757,9.82367c-0.18875,6.95154,1.82323,6.60583-2.05016,10.58539
	c-3.87337,3.97937-5.70181,2.79572-5.73479,7.61316c-0.0328,4.81744-1.43647,1.84003,0.11776,8.10559
	c1.55406,6.26569,2.40376,2.67816,1.63515,8.03625c-0.76862,5.35815,0.22004,4.80585-2.89448,8.75055
	s-3.17238,2.67999-4.82721,5.29034c-1.65483,2.61053-3.98911,1.45007-2.28618,5.42761
	c1.70277,3.97748,2.41537,2.93115,1.81868,6.50696c-0.59669,3.57593-0.56204,4.33478-3.81551,5.2442
	c-3.25347,0.90924-8.31232,1.14093-8.31232,1.14093s-6.30035,0.79535-7.97823,2.89984
	c-1.67803,2.10468-3.13958-2.13745-2.71481-3.93127c0.42494-1.79358-0.8746-2.49457-2.12771-2.18372
	c-1.2531,0.31091-2.24176,0.86304-3.72466,1.69135c-1.4829,0.82837-3.03528,0.13898-5.75967,1.53101
	c-2.72441,1.39209-5.17275,3.27856-5.30009,0.49609c-0.12752-2.78229-0.19699-4.29999,0.51561-5.3465
	c0.71243-1.04651-6.0243,1.28979-7.47255,2.87683c-1.44808,1.58716-5.3117,0.24323-3.65687-2.36731
	c1.65483-2.61047,3.28644-5.72687,5.2752-6.57825c1.98875-0.85156,4.72476-1.9906,4.94295-2.76105
	c0,0,2.82685-4.69183,4.62063-4.26703c1.79379,0.42474,4.34626,0.81488,5.30026-0.49609
	c0.95383-1.31097,2.45995-1.63348,2.321-4.66876c-0.13912-3.03528-0.1292-8.35858-0.93449-9.33563
	c-0.80512-0.97705-1.73759-4.73639-3.81904-5.90857c-2.08144-1.172-3.65687-2.36725-6.88914-6.52832
	c-3.23211-4.16101-2.66839-2.91937-3.23211-4.16101c-0.56371-1.24152-1.70293-3.97754-1.70293-3.97754
	s-1.7243,1.09283-5.01243,1.24335c-3.28829,0.15057-6.59963-0.2049-6.59963-0.2049s-1.97731,1.10443-4.90829,3.51996
	c-2.93114,2.41541-4.66689,3.25531-5.57447,5.578c-0.90757,2.32288-1.09111,3.85199-2.04494,5.16315
	c-0.95383,1.31097-3.68984,2.4502-3.88498,3.72638c-0.19497,1.27631,1.03509,0.45959,2.89817,2.40204
	c1.86326,1.9425,1.43849,3.73627,1.43849,3.73627s3.34616,1.1142,3.9331,2.86151c0.58693,1.74756,0.49609,5.30029,0.49609,5.30029
	s-2.47341-4.19586-4.99123-3.82715c-2.51782,0.36877-3.24186,1.16229-5.30009,0.49609
	c-2.0584-0.66614-4.1745-2.59705-5.19781-2.80359c-1.02331-0.2066-0.41333,2.04657-4.56461-0.04462
	c-4.15112-2.09119-7.99169-2.92914-10.17727-6.37775s-3.72652-3.88495-4.70525-8.65601
	c-0.97889-4.77118-0.97889-4.77118-1.37086-7.79486c-0.3918-3.02368-1.92113-3.20721-2.83039-6.46063
	c-0.90942-3.25348-0.95569-4.26538-0.53092-6.05914c0.42494-1.79364-0.76054-5.5415-3.27837-5.17273
	c-2.51782,0.36871,3.58554-4.72662,6.26553-1.55426c2.67999,3.17255,3.25532,4.66693,3.58924,6.42603
	c0.3341,1.75897,2.42715,3.18402,2.42715,3.18402s1.90767-2.62213,1.29751-4.87537
	c-0.60998-2.25336-0.46127-4.54138-0.46127-4.54138s1.26471-0.05786,3.3576,1.36719
	c2.09305,1.42487,2.66854,5.41296,4.24397,4.11456c3.90803-3.22046,3.98911-1.44989,4.85043-4.78448
	c0.86115-3.33453,0.28582-4.82904,0.95199-6.88727c0.66617-2.05823,1.07949-4.10504,2.55079-5.18622s2.45995-1.63342,3.437-2.4386
	c0.97688-0.80511,1.18364-1.82843,1.06772-4.35785c-0.11574-2.52942-0.65641-3.26508,0.49256-5.85236
	c1.14881-2.58731,2.12586-3.39243,4.05674-5.5087c1.93089-2.11609,4.19586-2.47324,5.94321-3.06018
	C53.25824,502.77777,56.84563,503.62732,56.84563,503.62732z"/>
<path class="st5" d="M72.28951,530.72058c1.12358,3.21869-0.27639,6.70496-1.49703,9.88794
	c-1.22063,3.18298-2.23672,6.92664-0.48617,9.85175"/>
<path class="st5" d="M67.01011,542.17249c0.23586,2.79779-1.45296,5.87189,0.0143,8.26575"/>
<path class="st5" d="M63.82696,544.8786c-0.04137,1.86273,0.0895,3.72919,0.39045,5.56805"/>
<path class="st5" d="M60.59502,546.29736c-0.25082,1.34229,0.46211,2.80804,1.67283,3.43921"/>
<path class="st5" d="M69.81845,538.01331c0.23183,1.54144,0.04761,3.14362-0.52805,4.59241"/>
<path class="st5" d="M41.20173,569.09894c-1.42066-1.14227-1.99666-3.22577-1.36481-4.93561
	c0.82329-2.22729,3.24355-3.40399,4.65545-5.31299c1.63363-2.20898,1.71102-5.44916,0.18471-7.73346
	c-3.20148,0.48663-6.6474,1.09479-8.89489,3.42621c-0.64817,0.67224-1.38617,1.55035-2.2993,1.35504
	c-0.83894-0.17914-1.19877-1.15332-1.41544-1.98334c-0.45118-1.72736-0.90235-3.45471-1.35354-5.18201
	c-0.26697-1.02197-0.54-2.05878-1.07613-2.96869c-0.49912-0.84717-1.22098-1.56177-2.07304-2.05249"/>
<path class="st5" d="M23.01141,544.74872c-1.13518,0.98761-1.81363,2.48029-1.81128,3.98505
	c0.0005,0.26044,0.00992,0.55096-0.1652,0.7439c-0.23888,0.26312-0.66869,0.18677-0.9964,0.04932
	c-1.42285-0.59674-2.47644-1.99548-2.65711-3.52783"/>
<path class="st5" d="M44.21749,563.11182c2.25674-2.88574,4.17113-6.03912,5.69054-9.3725
	c0.7449-1.63434,1.42722-3.3598,2.70707-4.61963c1.72229-1.69556,4.32186-2.33533,5.88535-4.17822
	c1.36666-1.61072,1.67703-4.04089,0.75937-5.94354"/>
<path class="st5" d="M54.3236,541.78729c-1.25933,2.3548-3.2533,4.31006-5.63216,5.52332"/>
<path class="st5" d="M53.75568,551.9657c1.43815-0.85291,2.48788-2.33459,2.81558-3.9743"/>
<path class="st5" d="M54.46794,545.32538c1.16159-1.42371,1.97681-3.12799,2.35616-4.92578"/>
<path class="st5" d="M46.29894,543.70654c2.51496-1.94116,4.69146-4.31952,6.40264-6.99628"/>
<path class="st5" d="M55.48065,537.25195c1.12021-1.62964,3.08844-2.63983,5.06542-2.6001"/>
<path class="st5" d="M57.71552,538.87195c0.42039-1.23376,1.95629-1.57916,3.22975-1.85657
	c1.27346-0.2774,2.78681-1.02783,2.72003-2.32953"/>
<path class="st5" d="M60.65474,530.36816c-0.49054,1.185-2.28231,2.27472-4.48117,2.935"/>
<path class="st5" d="M53.08681,533.16309c-0.76694,0.8988-1.78806,1.57843-2.91332,1.93909"/>
<path class="st5" d="M44.62814,540.71265c-1.14629,1.22992-1.97412,2.75421-2.38157,4.38531"/>
<path class="st5" d="M35.40437,528.18732c0.14433,1.53369,1.05359,2.9762,2.37482,3.76837
	c1.67114,1.00177,3.79952,0.92645,5.66379,0.35986"/>
<path class="st5" d="M46.06427,516.80035c0.03314,1.2652-0.12163,2.73145,0.3489,3.84546
	c1.05426-0.60059,2.11443-0.68182,3.32967-0.65442"/>
<path class="st5" d="M42.11637,516.7384c0.2372,0.62244,0.19868,1.30951,0.23282,1.97498
	c0.05502,1.0741,0.74187,2.75903,2.06564,1.91876c0.92624-0.58807-0.02507-3.84003,0.10194-4.77368"/>
<path class="st5" d="M38.78754,525.50549c0.10766-0.29877-0.46951-0.13361-0.5723,0.16699
	c-0.45169,1.32141-0.59956,2.74548-0.42914,4.13147c0.12533,1.01929,0.85492,2.27722,1.83213,1.96149"/>
<path class="st5" d="M40.67822,526.42664c-0.43554,1.58252-0.28296,3.31976,0.42207,4.802
	c0.25924-0.01599,0.51863-0.0321,0.77787-0.04828"/>
<path class="st5" d="M43.01839,527.83521c-0.04324,0.75043,0.24022,1.51422,0.76256,2.05487"/>
<path class="st5" d="M83.06969,538.96735c-0.76592,7.401-0.25251,14.93262,1.51083,22.16107
	c0.52839,2.16571,1.17303,4.35114,1.05157,6.5769"/>
<path class="st5" d="M75.09029,549.9411c-0.11121,4.04968,1.69973,8.11066,4.78683,10.73413
	c0.23787,0.20221,0.80243,0.14148,0.62664-0.11646"/>
<path class="st5" d="M78.4896,548.77515c-0.31963,4.59998,1.22804,9.30267,4.21689,12.81384"/>
<path class="st5" d="M80.14308,548.47626c0.62816,0.72888,1.25647,1.45782,1.8848,2.18671"/>
<path class="st5" d="M81.0441,545.12183c0.25537,0.07721,0.51089,0.15442,0.76626,0.23145"/>
<path class="st5" d="M125.03304,515.96106c-0.41164,5.79401-3.59295,11.32947-8.39172,14.60211"/>
<path class="st5" d="M126.397,519.74542c-1.11752,4.24854-3.11065,8.26459-5.81856,11.72375"/>
<path class="st5" d="M122.08153,512.54022c-0.62142,3.46124-2.2204,6.74146-4.56393,9.3634"/>
<path class="st5" d="M125.27898,533.13751c-1.15351,2.04388-2.46214,4.00037-3.91106,5.84698"/>
<path class="st5" d="M124.84563,538.78314c-0.58307,2.47137-2.08683,4.71429-4.15145,6.1925"/>
<path class="st5" d="M123.38561,546.19122c-0.36724,1.28931-1.55087,2.30573-2.88102,2.47339"/>
<path class="st5" d="M121.61336,533.88544c-0.40828,0.35406-0.81656,0.70819-1.22484,1.06232"/>
<path class="st5" d="M117.03193,550.55145c-1.55558,4.11426-2.3045,8.53168-2.19197,12.92877
	c0.08832,3.45026,0.68063,7.03662-0.55531,10.25934"/>
<path class="st5" d="M118.02058,558.38788c-0.37598,2.29456-0.48667,4.63239-0.32922,6.95203
	c0.16351,2.40729,0.61469,4.80737,0.468,7.21588c-0.14669,2.40845-1.00127,4.91974-2.92762,6.37286"/>
<path class="st5" d="M112.99976,580.12067c-0.56339,2.5365-1.92449,4.88977-3.84209,6.64301"/>
<path class="st5" d="M101.50024,593.07635c-0.95939,0.39514-1.40704,1.48505-1.68192,2.48566
	c-0.62478,2.27557-0.86316,4.65698-0.7015,7.01129c0.34588-0.01581,0.69174-0.03149,1.03761-0.04712"/>
<path class="st5" d="M103.1559,593.73474c-0.26596,1.95294-0.53175,3.9057-0.79772,5.85864
	c-0.07486,0.54956-0.14719,1.12488,0.04273,1.64587c0.18993,0.52118,0.73346,0.95856,1.27312,0.83057
	c0.06612-0.36505,0.22172-0.7135,0.44949-1.00616"/>
<path class="st5" d="M105.8623,598.71912c0.01497-1.60571,0.02978-3.21161,0.04475-4.81732
	c0.19413,1.42993,1.37103,2.32202,1.22619,3.75781"/>
<path class="st5" d="M91.25787,551.98639c-0.11709,2.26233,0.42847,4.55487,1.5517,6.52209"/>
<path class="st5" d="M96.74082,550.72284c0.13424,1.14917,0.56624,2.26233,1.24233,3.20117"/>
<path class="st5" d="M101.59949,557.09235c0.4177,2.01605-0.04324,4.19855-1.24066,5.87323"/>
<path class="st5" d="M94.57795,573.15967c-0.36218,0.92224-0.87073,1.78656-1.5009,2.55115"/>
<path class="st5" d="M74.97723,597.94916c1.75594-3.07703,4.60196-5.51678,7.91094-6.78204
	c1.67266-0.6394,3.49958-1.01135,4.90947-2.11554"/>
<path class="st5" d="M91.64613,600.92621c-0.47321-0.91364-0.16099-2.02832,0.24931-2.97168
	c0.94811-2.18005,2.38762-4.14459,4.18055-5.70551"/>
<path class="st5" d="M70.85859,594.00964c1.78873,0.57178,3.00735,2.54913,2.71465,4.40393"/>
<path class="st5" d="M105.13759,523.15399c0.2335,0.14691,0.18707,0.49561,0.10464,0.75873
	c-0.58004,1.85364-1.52428,3.59277-2.76292,5.08881"/>
<path class="st5" d="M110.18652,523.4834c-0.2626,1.69421-0.76071,3.35187-1.47517,4.91034"/>
<path class="st5" d="M102.41386,472.38025c-0.2806-3.41263,1.57929-6.91,4.56562-8.58536
	c0.1075-0.06039,0.22475-0.1203,0.34755-0.10834c0.16537,0.01596,0.288,0.15494,0.39281,0.28378
	c0.32468,0.39954,0.64951,0.79889,0.97436,1.19843"/>
<path class="st5" d="M94.84257,468.87006c0.35126,0.47861,1.08791,0.27371,1.65938,0.1127
	c0.57128-0.16098,1.42553-0.01715,1.40938,0.57617"/>
<path class="st5" d="M76.91385,466.31238c1.15855,0.32013,1.69805,1.68744,1.70344,2.8894"/>
<path class="st5" d="M65.82648,468.02859c1.12896,0.80899,1.94905,2.03888,2.26162,3.39224"/>
<path class="st5" d="M65.42073,475.53833c1.43176-0.5878,3.01627-0.7984,4.55182-0.60495"/>
<path class="st5" d="M78.3599,442.06274c0.60999,0.99725,1.31586,1.93576,2.10466,2.79861
	c0.74019,0.80933,1.5655,1.56061,2.53918,2.0658c2.48603,1.28961,5.68062,0.73077,7.89362-0.98581
	c2.213-1.71655,3.51254-4.41843,3.98019-7.17984"/>
<path class="st5" d="M74.74559,427.21405c1.71488-1.12845,3.7748-1.72464,5.82731-1.68695
	c1.59359,0.02927,3.15421,0.42795,4.69785,0.82431c4.21824,1.08319,8.47046,2.1785,12.38286,4.0914
	c0.04475,0.24628-0.27555,0.46884-0.49071,0.34097"/>
<path class="st5" d="M88.86184,421.091c0.45774-0.89157,1.81112-0.57617,2.65913-0.04239
	c1.61985,1.01944,3.02081,2.38492,4.08164,3.97784"/>
<path class="st5" d="M84.31624,422.56381c4.82838-0.82715,10.04874,1.58234,12.55159,5.79349"/>
<path class="st5" d="M91.99016,418.92224c1.57424,0.37701,2.93299,1.55844,3.52497,3.06506"/>
<path class="st5" d="M85.42921,430.36743c1.93879-0.09473,3.90096,0.35007,5.60928,1.27161"/>
<path class="st5" d="M75.83855,431.27853c1.18313-0.93954,2.7525-1.3764,4.25087-1.18347"/>
<path class="st5" d="M86.82077,433.03799c0.93752,0.05096,1.88159-0.02136,2.80044-0.21466"/>
<path class="st5" d="M76.46519,433.71426c0.8465,0.05316,1.69301,0.10648,2.53952,0.15982"/>
<path class="st5" d="M79.28833,439.46655c2.93654,0.46597,5.94944,0.44714,8.87992-0.05551
	c-0.68333,1.42856-1.56786,3.02264-3.11737,3.34952C83.85547,443.01273,80.09884,440.38049,79.28833,439.46655z"/>
<path class="st5" d="M79.14097,444.1886c-0.08394,0.07538-0.11288-0.16721-0.00067-0.15628
	c0.11237,0.01077,0.15578,0.14923,0.17277,0.26077c0.31458,2.0769,0.62916,4.15363,0.94374,6.23053"/>
<path class="st5" d="M95.15681,448.44907c2.13376-1.16696,4.80147-1.30457,7.04424-0.36368"/>
<path class="st5" d="M104.08366,457.04318c-0.43924,1.28909,0.05837,2.74945,0.92742,3.798
	c0.86905,1.04871,2.06211,1.76755,3.23127,2.46619"/>
<path class="st5" d="M74.0515,461.72791c-1.21728-2.48032-1.42083-5.44006-0.5543-8.06354"/>
<path class="st5" d="M78.70947,493.93506c5.49237-0.09219,10.98576-0.11407,16.47846-0.06595"/>
<path class="st5" d="M98.74051,494.25385c2.65727-0.26682,5.28797-0.79639,7.84147-1.57846"/>
<path class="st5" d="M106.50375,487.86969c-1.38651,1.89203-3.36248,3.34567-5.58137,4.1062
	c-0.00353-0.08392-0.00723-0.16769-0.01077-0.25165"/>
<path class="st5" d="M94.3712,482.09201c-2.06899,0.5947-3.54652,2.79407-3.31503,4.9342
	c1.4511-0.58795,2.66535-1.73959,3.32916-3.15756"/>
<path class="st5" d="M101.08556,492.27182c-2.10264,1.14307-4.66251,1.41409-6.95811,0.73715
	c-0.49727-0.1467-1.00413-0.35107-1.33789-0.74792c-0.46716-0.55582-0.48869-1.34512-0.67307-2.0473
	c-0.20961-0.79874-0.65944-1.53268-1.27599-2.08194c0.83607-0.57013,1.67199-1.14041,2.50806-1.71051
	c1.85922-1.2681,3.76067-2.55618,5.92606-3.16937c-0.34436-0.00772-0.68871-0.01529-1.03307-0.02304"/>
<path class="st5" d="M97.72527,481.9726c1.34446-0.19733,2.717,0.01242,4.07138-0.0986
	c1.35438-0.11084,2.8065-0.6507,3.43212-1.85684"/>
<line class="st4" x1="98.18503" y1="510.41653" x2="97.18326" y2="493.35147"/>
<path class="st4" d="M97.02142,484.15009c-0.3208-1.35757,7.53378-40.78293,7.53378-40.78293"/>
<line class="st4" x1="74.20407" y1="443.68008" x2="70.39715" y2="474.40616"/>
<line class="st4" x1="67.6936" y1="485.89474" x2="63.75008" y2="505.90036"/>
<line class="st4" x1="111.66556" y1="485.35809" x2="117.79248" y2="499.68698"/>
<g>
	<path class="st5" d="M47.48645,57.4444c0.46833-2.40864,2.34724-4.48824,4.69616-5.19764"/>
	<path class="st5" d="M51.68314,48.89825c1.34193-0.73464,2.8854-1.09733,4.41422-1.03727"/>
	<path class="st5" d="M62.95606,51.47141c0.9101,0.41871,1.72935,1.03324,2.3861,1.78958"/>
	<path class="st5" d="M68.63045,57.12629c1.15554,0.71024,2.09306,1.77006,2.65711,3.00365"/>
	<path class="st5" d="M118.73639,165.41463c-0.8662,0.63539-1.73256,1.27077-2.59875,1.90616"/>
	<path class="st5" d="M111.79307,162.40627c-0.49105,2.12485-2.07909,3.96472-4.1094,4.76093"/>
	<path class="st5" d="M105.92202,171.11156c-0.61066,0.26596-1.22114,0.5321-1.83163,0.79807"/>
	<path class="st5" d="M103.2104,165.70145c0.42494-1.22366,1.3019-2.28465,2.42396-2.93216"/>
	<path class="st5" d="M110.97836,169.86754c0.91766,0.16806,1.89909-0.56036,2.00389-1.48727"/>
	<path class="st5" d="M114.85342,161.23122c0.39768-0.19885,0.79536-0.39769,1.19305-0.59653
		c-0.39769,0.09943-0.79537,0.19884-1.19305,0.29826"/>
	<g>
		<path class="st2" d="M128.12315,138.8632c0.76442-2.11258,1.40973-4.91167,1.151-7.6243
			c-0.2589-2.71278-0.80125-5.02268-1.86578-8.30256c-1.06454-3.27988,0.75632-5.01041-4.41406-9.13309
			c-5.17056-4.12252-5.17056-4.12252-8.69705-7.32854c-3.52632-3.20603-3.1564-2.70455-7.35698-7.34924
			c-4.20039-4.64452-6.19386-4.72274-9.58881-8.80017c-3.39478-4.07744-6.1074-8.98927-7.62395-12.95954
			c-1.51655-3.97044-8.62691-12.21985-10.91207-14.79285s-4.28687-5.5489-5.24441-6.58466
			c-0.95753-1.03576-0.67408-1.43866-1.06436-3.28005c-0.39044-1.84122-1.9482-1.85367-3.50597-1.86595
			c-1.55776-0.01245-13.8841-5.43821-17.56688-4.65747c-3.68261,0.7809-6.03776,3.09904-8.17522,5.44998
			c-2.13729,2.35094-4.41439,2.67561-5.34332,5.87727c-0.92911,3.20199,0.09437,3.80205,1.85754,5.40506
			c1.76333,1.60302,1.73036,1.82087,0.56305,3.64981c-1.16748,1.82894-1.55776-0.01228-2.26885,3.22234
			c-0.71125,3.23463-0.27555,3.30041-0.90858,4.54173c-0.63303,1.24117-1.96049-0.29607-1.51671,2.66737
			c0.44377,2.96345,0.06156,4.01991,2.42495,4.59943c2.36322,0.57954,3.20166,0.92894,4.38966,0.43991
			c1.18784-0.48903-0.71933,0.33695,3.31285-1.28221c4.03202-1.61933,7.67374-5.08006,5.524-1.17135
			c-2.14974,3.90871-2.71683,4.71433-3.78573,5.88972c-1.06857,1.17556-2.3427,0.76038-3.0743,2.6551
			c-0.73178,1.89488-2.35532,2.31814,0.25872,2.71279s3.11552,0.02473,4.45543,0.0042
			c1.33991-0.02052,0.62075,0.3166,2.49494-0.2917c1.87436-0.6083,1.59074-0.2054,3.0622-1.09733
			c1.47146-0.89193,2.05099-3.25515,2.87698-1.34815c0.82616,1.90717,0.58795,0.53428,1.83719,4.06515
			c1.2494,3.53054,2.73382,4.64839,2.71901,6.6501c-0.0148,2.00187-1.10944,4.8262-2.11105,7.03264
			c-1.00144,2.20644-1.81262,4.62803-2.70892,7.612c-0.89597,2.98398-0.84264,4.10603-3.40319,4.83344
			c-2.56072,0.72741-7.34503,2.90154-9.19887,4.84975c-1.85366,1.94821-4.11024,3.6128-6.11598,5.09233
			c-2.00574,1.47971-6.82303,3.87154-8.16294,3.89206s-3.12107,1.53404-6.51114,0.35394
			c-3.39024-1.18027-6.18916-1.82574-8.49922-1.28322c-2.30989,0.54253-7.02843,2.28096-8.097,3.45634
			c-1.06873,1.17555-2.54019,2.06749-3.08693,4.21303c-0.54673,2.14537-0.52621,3.48528-0.97436,4.97726
			c-0.44798,1.49199,3.51035-2.58932,3.37863-1.71791c-0.13155,0.8714-2.23604,3.00449-2.09624,5.03076
			c0.13963,2.02626,3.60875-3.24287,3.16077-1.75089c-0.22845,0.76054-0.8714,1.98135-1.38432,3.15219
			c0.82514-0.60258,2.24159-1.11734,4.67244-1.31888c8.57375-0.71092,8.29029-0.30818,11.77557,0.21819
			c3.48545,0.52621,2.54827,0.83018,6.60097,0.55093c4.05254-0.27942,4.73906-0.39868,7.73531-1.06032
			c2.99642-0.66162,4.89114,0.06998,7.26681-0.90808c2.37584-0.97823,4.50775,0.04408,5.74656-1.71521
			c1.23898-1.75914,1.98068-2.24278,2.77386-0.11777c0.79335,2.12502-0.50568,4.82536-0.58374,6.81883
			c-0.07822,1.99345,1.2494,3.5307,0.6041,6.32979c-0.64548,2.79893-0.53865,5.04305-0.53865,5.04305l0.55143,0.0498
			c-0.35563,0.86853-0.55143,1.76047-0.55143,2.67224c0,8.565,16.35901,15.50832,36.53876,15.50832
			c17.11031,0,31.46897-4.99258,35.44244-11.73218l1.43446,0.12955c0,0-0.27101-1.15454-0.43688-2.82214
			c0.0582-0.35832,0.09858-0.71883,0.09858-1.08354c0-0.5733-0.07873-1.13855-0.22155-1.69571
			c0.01547-1.01944,0.10498-2.08817,0.31777-3.1246c0.84264-4.10603,1.27818-4.04025,2.12098-8.14629
			c0.84264-4.10587,0.70302-6.13229,0.59619-8.37642C128.16403,141.54301,127.35841,140.97594,128.12315,138.8632z"/>
		<path class="st5" d="M55.1575,60.94247c-1.58553,0.83507-2.82719,2.30148-3.3894,4.00308
			c-0.22273,0.67442-0.3092,1.50426,0.18303,2.01634c0.66347,0.69006,1.82254,0.31088,2.64618-0.17697
			C55.53769,66.22759,54.33891,61.66685,55.1575,60.94247z"/>
		<path class="st5" d="M125.38092,139.08105c-2.23453-0.0493-3.37963,2.55164-4.35752,4.56142
			c-1.87756,3.85873-5.24054,6.97124-9.23302,8.54497c-1.3024,0.51343-2.77925,0.95435-3.51893,2.14302
			c-0.56474,0.90724-0.56389,2.06345-1.03627,3.02216c-0.51476,1.04434-1.52916,1.74046-2.53211,2.33194
			c-4.16761,2.4581-8.91071,3.93343-13.73741,4.27307"/>
		<path class="st5" d="M104.48235,127.52821c-2.08498,3.56519-4.47646,7.01683-7.62512,9.68958
			c-3.14867,2.67276-7.13846,4.52341-11.26837,4.48454c-0.75247-0.00706-1.5184-0.07452-2.24681,0.11389
			c-3.16296,0.81773-3.80626,5.71324-6.96434,6.5495c-1.15554,0.306-2.37164-0.03331-3.56637-0.07487
			c-4.20999-0.14635-7.57432,3.29453-10.34852,6.46472c2.45895-0.14114,4.90426-0.51779,7.29154-1.12341
			c-3.16767,1.99751-4.69163,6.26469-3.50597,9.81676c1.68964-2.30888,4.08197-4.0961,6.77525-5.06137
			c-1.92231,3.08305-3.88213,6.98032-2.08532,10.13806c0.97672-3.30629,3.85975-5.97417,7.23182-6.6918
			c-1.41864,2.80984-1.35033,6.31987,0.17664,9.07236c0.41333-3.83047,4.80265-6.68172,8.47046-5.50195"/>
		<path class="st5" d="M117.60439,138.29276c-1.16849,2.82835-3.69624,5.05852-6.64807,5.86549"/>
		<path class="st5" d="M107.10767,144.53456c-0.99454,1.5031-2.48703,2.67023-4.18526,3.27332"/>
		<path class="st5" d="M95.17935,157.73012c2.3861-0.34166,4.63477-1.57088,6.21036-3.39511"/>
		<path class="st5" d="M106.80032,150.19566c0.29827-0.29826,0.59653-0.59653,0.89479-0.89479
			C107.39685,149.59914,107.09859,149.8974,106.80032,150.19566"/>
		<path class="st5" d="M121.19095,152.00761c-0.87376,2.87581-3.19442,5.27116-6.04111,6.23576"/>
		<path class="st5" d="M118.4837,151.73172c-1.44707,1.65349-3.53003,2.7355-5.71476,2.96884"/>
		<path class="st5" d="M119.59483,159.10266c-0.92019,0.69392-1.63969,1.65079-2.05083,2.72743"/>
		<path class="st5" d="M120.59308,164.01079c1.27582-0.97502,1.94804-2.6815,1.68006-4.26466"/>
		<path class="st5" d="M106.44318,116.81145c0.41653,1.17034-0.08226,2.59874-1.13703,3.25532"/>
		<path class="st5" d="M70.67152,83.44557c1.7487,1.12071,2.90053,2.98616,3.63416,4.92932
			c0.73347,1.94317,1.10272,4.00123,1.64625,6.00597c0.57113,2.10684,1.33504,4.15565,2.09794,6.20076
			c0.49425,1.32494,1.14275,2.80566,2.48316,3.25583"/>
		<path class="st5" d="M57.90006,86.7061c3.1554-1.14308,5.75749-3.72399,6.92632-6.86996"/>
		<path class="st5" d="M63.26525,91.65932c3.48024,0.49525,7.17344-0.94509,9.3994-3.66562"/>
		<path class="st5" d="M63.36787,99.31001c1.76585,1.12257,3.84595,1.74483,5.93816,1.77645
			c1.19305,0.01817,2.68185-0.42308,2.83813-1.60604"/>
		<path class="st5" d="M53.69966,141.25485c-0.03129-2.90273,0.03028-5.84093,0.77602-8.64642
			c0.74575-2.80548,2.24244-5.49927,4.60364-7.18807"/>
		<path class="st5" d="M68.19542,126.444c1.21812,1.44169,2.81828,2.55769,4.59204,3.2025"/>
		<path class="st5" d="M67.11542,132.00989c0.70318,1.41057,1.88176,2.57906,3.29855,3.26979"/>
		<path class="st5" d="M65.68333,138.55568c0.1058,0.64851,0.54958,1.23242,1.14611,1.50797
			c-0.39634-0.50012-0.79268-1.00009-1.18902-1.50023"/>
	</g>
</g>
<text transform="matrix(1 0 0 1 90.5248 23.69243)"><tspan x="0" y="0" class="st6 st7">Traje</tspan><tspan x="2.9624" y="18" class="st6 st7">pesado</tspan><tspan x="13.52783" y="36" class="st6 st7">de hasta</tspan><tspan x="10.0415" y="54" class="st6 st7">100kg.</tspan></text>
<line class="st9" x1="51.88855" y1="472.18268" x2="58.26388" y2="472.18268"/>
<text transform="matrix(1 0 0 1 12.61774 476.63171)" class="st6 st7">Actor</text>
<g>
	<g>
		<path class="st10" d="M208.97615,583.95068c-0.1465,0.43951-3.51605,3.80908-5.56709,4.98108
			c-2.05103,1.172-6.59259,4.10205-7.1786,9.08313c-0.586,4.98108-0.4395,6.73907,3.36955,7.6181s12.74568,3.51605,21.53581,1.172
			c8.79013-2.34399,11.13417-4.39502,13.4782-8.64362c2.34404-4.24854,1.61153-10.69464,1.02553-11.13416
			C235.05353,586.58771,208.97615,583.95068,208.97615,583.95068z"/>
		<path class="st10" d="M255.27083,587.61322c-0.14651,1.75806,0,6.29962,0.586,9.22968c0.58601,2.92999,0,8.05762,3.95555,9.66913
			c3.95557,1.61151,10.54816,2.78351,18.60577,1.61151s11.72018-3.22302,12.4527-5.12756s0.879-3.66254-1.02551-8.2041
			c-1.90454-4.54156-6.73911-9.96216-6.73911-9.96216L255.27083,587.61322z"/>
		<path class="st10" d="M301.85849,514.80164c-1.86325-4.60907-7.86038-10.52798-12.80972-14.5112
			c-0.20865-1.99216-0.34818-3.42914-0.37546-3.94803c-0.14651-2.78357-1.75803-13.77121-1.75803-13.77121l-89.21982,7.0321
			l-0.73251,3.36954c0,0-13.3317,1.75803-22.12183,6.73911c-8.79013,4.98105-10.69461,10.25513-11.42717,15.67569
			c-0.7325,5.42059,6.44612,6.59265,11.72018,6.15314c5.27408-0.43951,18.75229-2.49054,18.75229-2.49054
			s-0.29301,7.17859-0.87901,12.4527c-0.58603,5.27405-2.93005,25.78436-0.43953,35.01398
			c2.49054,9.22968,7.76462,14.50372,13.47821,17.87329c5.71356,3.36951,14.79672,4.39502,27.10289,4.54156
			c12.30618,0.14648,20.2173,1.02551,30.91196,0.43945c10.69467-0.586,17.14078-1.758,20.9498-4.24854
			c3.80908-2.49054,8.93665-9.52264,10.69467-19.33826c1.75803-9.81567-0.73251-18.60577-1.31851-21.97534
			c-0.58603-3.36957-2.19754-15.52924-2.19754-15.52924s-0.01669-0.14471-0.04568-0.39606
			c2.59644,0.46198,5.05795,0.57782,7.2243,0.24957C304.20251,527.40088,304.64206,521.68726,301.85849,514.80164z"/>
		<path class="st11" d="M203.40906,495.75641c1.17203,1.172,3.22305,4.83456,1.75803,11.42715
			c-1.46501,6.59262-5.12756,12.1597-11.28065,11.86667"/>
		<path class="st11" d="M274.3161,494.29138c-3.2009,1.34775-6.88559,8.93661-6.15308,16.70123
			c0.73248,7.76459,8.05762,11.13416,14.06418,13.77118c6.00659,2.63708,12.30618,4.10211,17.14075,3.36957
			c4.83459-0.73248,5.27408-6.44611,2.49054-13.33167c-2.78354-6.88562-14.79669-16.70126-18.75226-18.6058
			C279.15067,494.29138,277.09964,493.11935,274.3161,494.29138z"/>
		<path class="st10" d="M215.42224,411.37115c0,0-8.79013-15.08972-16.84775-24.17285s-19.77779-17.72675-22.56133-19.04526
			c-2.78354-1.31854-3.22305,1.61151-3.22305,2.93002s0.73251,16.70126,3.51605,27.3959
			c2.78354,10.69467,11.13417,29.59344,16.40823,35.45352c0,0-5.42058,11.57367-6.44609,23.44034s1.75803,23.87985,7.1786,29.15393
			s18.75227,8.20413,26.07739,9.37613c7.3251,1.17203,17.43375,2.93005,23.58684,1.90454s21.2428-3.22305,27.54239-3.80905
			c6.29959-0.58603,12.4527-3.66257,16.40826-9.22964c3.95554-5.56708,6.73907-14.65021,7.3251-24.02637
			c0.586-9.37613-2.63705-22.26831-6.00659-26.22388c0,0,7.6181-11.86667,11.57367-19.48477s8.05762-15.38272,10.25516-26.51691
			c2.19751-11.13416,3.22302-16.84772,3.22302-19.33826s-1.90451-3.36957-3.36954-2.34406s-16.99426,10.54816-21.38931,14.50372
			s-14.21069,15.23624-17.58026,20.0708c-3.36954,4.83456-5.86008,9.37613-5.86008,9.37613s-8.49713-3.36954-22.85434-4.10205
			S215.42224,411.37115,215.42224,411.37115z"/>
		<path class="st11" d="M313.43216,369.17856c0-2.49057-1.90451-3.36957-3.36954-2.34402
			c-1.2594,0.88156-12.90662,8.03986-18.94489,12.54544c3.1373,0.97662,7.06763,3.44266,10.30127,8.69733
			c2.72147,4.42245,4.20721,9.7301,4.97604,13.40778c1.522-3.85654,2.85101-8.08865,3.81406-12.96826
			C312.40665,377.38266,313.43216,371.6691,313.43216,369.17856z"/>
		<path class="st11" d="M176.01317,368.15305c-2.78354-1.31851-3.22305,1.61151-3.22305,2.93002s0.7325,16.70126,3.51604,27.3959
			c0.13058,0.50168,0.27719,1.02673,0.43137,1.56232c1.12381-5.62323,3.15889-11.47025,7.77278-15.18701
			c3.01277-2.42694,6.35828-3.08414,8.6749-3.20233C186.02821,374.83826,178.21786,369.19739,176.01317,368.15305z"/>
		<path class="st11" d="M287.9408,434.37201c-2.19754-1.46503-7.6181-7.0321-10.40164-10.84116
			c-2.78354-3.80908-8.20413-9.22964-8.20413-9.22964"/>
		<path class="st11" d="M212.7852,453.56378c2.04324-8.46484-4.24857-10.84116-7.76462-9.22964
			c-3.51605,1.61154-6.88559,8.05762-5.27408,13.62469C201.35803,463.52594,210.73418,462.06091,212.7852,453.56378z"/>
		<path class="st11" d="M266.991,446.09216c-4.84329-4.21832-11.28067-3.36954-13.62471,1.02551
			c-2.34402,4.39508-1.30841,12.36551,7.91112,13.47821C269.77454,461.6214,271.53256,450.04773,266.991,446.09216z"/>
		<path class="st11" d="M230.36546,464.11194c-1.93472-0.96738-2.63704-2.49054,0.1465-2.93005s4.54156,0.73251,3.66255,1.46503
			S232.12349,464.99094,230.36546,464.11194z"/>
		<path class="st11" d="M215.12924,460.88889c2.93004-2.19754,10.69466-4.98108,18.89877-4.54156s17.43375,5.27408,17.43375,5.27408
			"/>
		<path class="st11" d="M222.01483,472.16956c0,0,6.8856-1.75803,8.05762-2.19754c1.17203-0.43951,2.63704-0.73251,5.42058,0
			c2.78355,0.73251,7.32512,2.05103,7.76462,2.34402c0.43951,0.29303-0.87901,5.86011-2.63704,8.79013
			c-1.75803,2.93005-6.44609,6.59262-7.91112,6.73911c-1.46501,0.14651-6.29959-5.12756-8.05762-7.76462
			C222.89384,477.44363,220.11031,473.78107,222.01483,472.16956z"/>
		<path class="st11" d="M197.40248,468.6535c-1.90453-5.12756-6.29959-5.86008-8.35063-3.80905
			c-2.05103,2.05103-1.02551,9.22961,0.58601,13.62469c1.61153,4.39505,4.83456,7.76462,7.91112,9.37613
			c3.07654,1.61154,5.71358,2.78354,5.12758-1.46503C202.09055,482.13168,197.40248,468.6535,197.40248,468.6535z"/>
		<path class="st11" d="M266.698,480.95969c0.3158-6.00006,4.10205-14.65021,8.93661-16.99426
			c4.83456-2.34402,10.40167,0,11.28067,5.86011c0.87903,5.86008-2.49054,13.3317-6.73911,16.26172
			c-4.24857,2.93005-10.69464,2.78354-12.01315,1.90454C266.84448,487.11276,266.55148,483.74323,266.698,480.95969z"/>
		<path class="st11" d="M277.11823,491.95871c0,0,9.48608,2.62274,11.93054,8.33173"/>
		<path class="st11" d="M280.46124,490.62149c0,0,6.06076,1.07843,8.21207,5.72092"/>
		<path class="st11" d="M265.75195,501.98776c-0.33429,5.01453,0.66861,8.69183,4.01163,13.70639"/>
		<path class="st11" d="M272.43799,501.98776c-2.0058,3.00873-2.67441,8.02325-2.0058,11.03195"/>
		<path class="st11" d="M273.1066,507.6709c-0.66861,2.67441-1.67151,6.68604-0.33429,9.36047"/>
		<path class="st11" d="M274.77811,512.01685c-0.66861,1.67151-1.67151,6.0174,0.33432,7.35461"/>
		<path class="st11" d="M201.2317,501.31915c0.66861,1.67151,1.0029,6.35175-1.3372,11.03198
			c-2.34012,4.68024-3.67732,4.0116-3.67732,4.0116"/>
		<path class="st11" d="M198.5573,505.99939c0,0-1.00291,6.35175-5.34883,10.36334"/>
		<path class="st11" d="M193.87706,509.34241c0,0-0.66859,4.0116-3.67732,7.02032"/>
		<path class="st11" d="M273.77521,525.05457c2.67441,3.34302,6.35175,4.34595,10.69766,5.34888"/>
		<path class="st11" d="M278.45544,533.74646c2.34009,1.33716,5.34882,1.67151,7.68893,1.33716"/>
		<path class="st11" d="M281.12985,540.76678c1.33719,1.00287,3.0087,1.67151,5.68314,1.00287"/>
		<path class="st11" d="M282.46704,545.78131c2.00583,1.67151,4.01163,2.34009,5.68314,2.0058"/>
		<path class="st11" d="M289.82169,554.13885c0,0,2.67441,18.05231-10.69766,28.08136"/>
		<path class="st11" d="M285.81006,565.17084c0,0-2.34009,11.03192-11.03195,17.04938"/>
		<path class="st11" d="M277.11823,572.85974c0,0-1.0029,4.68024-6.35175,8.35754"/>
		<path class="st11" d="M208.92065,508.6738c0,0-0.3343,8.02322-11.03197,13.70639"/>
		<path class="st11" d="M208.58635,518.70288c0,0-3.67732,5.34882-10.02905,7.02032"/>
		<path class="st11" d="M220.62122,457.19131c0,0,12.36917-5.68314,25.40694-0.66861"/>
		<path class="st11" d="M270.43219,420.0838c0,0,2.67441,2.67441,5.01453,5.34885
			c2.34012,2.67441,10.02905,9.02615,10.02905,9.02615"/>
		<path class="st11" d="M277.11823,417.0751c0,0,3.67731,6.35172,5.34882,8.69183s5.34885,4.68024,5.34885,4.68024"/>
		<line class="st11" x1="283.46997" y1="421.75531" x2="288.15018" y2="426.43555"/>
		<line class="st11" x1="287.14728" y1="421.0867" x2="290.82458" y2="423.09253"/>
		<line class="st11" x1="289.82169" y1="418.41229" x2="293.83331" y2="417.74368"/>
		<path class="st11" d="M181.50789,399.0228c-0.33429,1.33719,0.3343,7.35464,1.33722,10.02905
			c1.0029,2.67441,6.68604,12.70346,6.68604,12.70346"/>
		<line class="st11" x1="192.20555" y1="419.74951" x2="190.86835" y2="424.76404"/>
		<path class="st11" d="M201.2317,415.73788c-3.67732,2.34012-8.35754,11.70056-8.35754,11.70056"/>
		<path class="st11" d="M205.57762,420.41812c0,0-8.67703,7.97354-12.86322,13.51437c0,0,6.8856-13.0387,17.14076-19.48477"/>
		<path class="st11" d="M208.58635,588.23761c0.66859,1.00293,8.35754,3.00873,17.04939,3.00873s6.68604-1.00287,6.68604-1.00287"/>
		<path class="st11" d="M210.92645,591.58063c0,0,11.36627,2.67444,20.72672,0.66864"/>
		<path class="st11" d="M214.60378,596.26086c0,0,9.69476,1.67151,16.71509-1.00287"/>
		<path class="st11" d="M215.27238,600.27252c1.0029,0,7.02034,1.33722,14.04068-1.33722"/>
		<path class="st11" d="M258.73163,592.24927c0,0,12.03485,0.33429,21.061-2.67444"/>
		<path class="st11" d="M258.39731,594.25507c1.00293,0,6.35175,1.33722,12.70349,0"/>
		<path class="st11" d="M259.40024,595.92657c0,0,4.34592,2.0058,8.02322,1.33722"/>
		<path class="st11" d="M260.06882,598.9353c0,0,3.67734,1.67151,6.35175,1.67151"/>
	</g>
</g>
<rect x="456.01071" y="122.20711" style="fill:none;" width="188.2565" height="147.63274"/>
<text transform="matrix(1 0 0 1 474.43188 133.45718)"><tspan x="0" y="0" class="st6 st7">Productos como</tspan><tspan x="-13.19092" y="18" class="st6 st7">el caucho escaseaban </tspan><tspan x="-0.83496" y="36" class="st6 st7">después de la Segunda Guerra Mundial. El Godzilla original </tspan><tspan x="-14.97461" y="54" class="st6 st7">de 1954 fue </tspan><tspan x="-8.83301" y="72" class="st6 st7">creado apartir de concreto </tspan><tspan x="46.97754" y="90" class="st6 st7">premezclado.</tspan></text>
<rect x="176.71892" y="260.94919" style="fill:none;" width="130.89584" height="147.63274"/>
<text transform="matrix(1 0 0 1 182.40135 272.19931)"><tspan x="0" y="0" class="st6 st7" style="fill:#808285;">Hoy en día, la mayor parte</tspan><tspan x="0.92285" y="18" class="st6 st7" style="fill:#808285;">del traje </tspan><tspan x="-3.0835" y="36" class="st6 st7" style="fill:#808285;">está hecho con algodón pp, </tspan><tspan x="3.95166" y="54" class="st6 st7" style="fill:#808285;">poliespuma, plástico </tspan><tspan x="-4.31396" y="72" class="st6 st7" style="fill:#808285;">y otros. Su peso </tspan><tspan x="4.35791" y="90" class="st6 st7" style="fill:#808285;">es sólo de unos 8kg.</tspan></text>
<path class="st9" d="M60.31247,45.14282c0,0,4.78006-25.266,25.94887-25.94887"/>
</svg>
